<svg xmlns="http://www.w3.org/2000/svg" version="1.1" xmlns:xlink="http://www.w3.org/1999/xlink" xmlns:svgjs="http://svgjs.com/svgjs" width="540" height="508"><svg id="SvgjsSvg1002" width="2" height="0" focusable="false" style="overflow: hidden; top: -100%; left: -100%; position: absolute; opacity: 0"><polyline id="SvgjsPolyline1003" points="0,0"></polyline><path id="SvgjsPath1004" d="M0 0 "></path></svg><defs id="SvgjsDefs1023"></defs><defs id="SvgjsDefs1024"><style>
		  .lo-name path, .lo-name {
			fill: #ffffff;
		  }
		  .lo-tagline path, .lo-tagline {
			fill: #7ed321;
		  }
		  .lo-icon path, .lo-icon {
			fill: #7ed321;
		  }
		  .lo-shape path, .lo-shape {
			fill: #b663b7;
		  }
		</style></defs><g id="SvgjsG1025" fill="#b663b7" class="lo-shape"><title>forma</title><g id="Слой_2" data-name="Слой 2"><g id="Слой_1-2" data-name="Слой 1"><g id="_151616ff" data-name="#151616ff"><path transform="translate(66, 121) scale(1.2,1.2)" d="M55.39,0c2.66-.07,5.32,0,8,0h211c2.78,0,5.56,0,8.35,0,.05,4.72-.1,9.44.07,14.16,1.8,0,3.61,0,5.41,0-.15,4.31-.6,8.6-.83,12.9-1.51,21.36-2.95,42.72-4.45,64.08a58.28,58.28,0,0,0-.18,6.2c15.88,0,31.77,0,47.65,0,2.46,0,4.93,0,7.39,0q0,9,0,18c-7.14.06-14.29.12-21.42.45-2.93.14-5.86.21-8.77.56,10.05.69,20.11.81,30.17,1q0,17.34,0,34.7c-4.13.14-8.26.41-12.4.54,4.13.34,8.26.56,12.4.62,0,15.66,0,31.32,0,47-2.57.1-5.14-.1-7.72-.15-10.37-.29-20.74-.29-31.12-.12-7,.18-13.94.33-20.89.9,12.34.79,24.71,1,37.08.95,7.55,0,15.09-.21,22.63-.44,0,6.23,0,12.45,0,18.68-2.67.11-5.34,0-8,.06H6.1c-2,0-4.07,0-6.1-.08,0-3,0-6,0-9,1.2,0,2.41,0,3.61,0,6.54.2,13.07.13,19.61.14,9.87,0,19.75-.31,29.6-.93-3-.28-6-.4-9.07-.55q-21.83-.8-43.67-.22c-.1-8.93,0-17.85,0-26.77,0-3.2-.06-6.41,0-9.61q10.5-.15,21-.86c-3.94-.54-7.93-.58-11.89-.78-3-.15-6.07-.13-9.11-.25C0,169.13,0,167.05,0,165V125.44c0-2.11,0-4.22,0-6.33,7.82,0,15.64,0,23.46-.27,3.75-.14,7.51-.27,11.24-.71-11.56-.93-23.16-1-34.75-.86,0-6.62,0-13.23.05-19.85,18.41,0,36.82,0,55.22,0-.12-3.67-.5-7.32-.72-11-1.42-21.24-3-42.47-4.39-63.71-.18-2.83-.43-5.65-.55-8.49,1.93-.08,3.85-.07,5.78,0,0-4.72,0-9.45,0-14.18M68.86,13.4c-.09,3.28,0,6.56,0,9.84,10,0,20,.33,30,.44,6.14.19,12.29,0,18.42.49-1.88.06-3.77,0-5.66,0-11.52.21-23,.38-34.56.58-2.76.05-5.52,0-8.26.19,0,5.55,0,11.09,0,16.64,16.76.18,33.52.55,50.29.78,2.16,0,4.33,0,6.49.15-4.18.14-8.37.18-12.56.28-14.73.2-29.46.52-44.19.69-.06,8.5,0,17,0,25.49,5.67.09,11.35.1,17,.31-5.66.13-11.33.28-17,.26,0,7.73-.07,15.46.05,23.19q100.24,0,200.49,0c0-1.39,0-2.78,0-4.17-10.46-.12-20.93-.41-31.39-.61-15-.3-30.1-.64-45.15-.9,4.88-.33,9.78-.3,14.67-.41,20.63-.45,41.26-.81,61.89-1.3,0-5.1,0-10.19,0-15.28-2.25-.14-4.51-.15-6.77-.17-5.44-.11-10.87-.23-16.31-.32-3.71-.14-7.43-.09-11.14-.3,5.78-.2,11.56-.24,17.34-.37,5.63-.18,11.27-.19,16.9-.39,0-4.76,0-9.53,0-14.29-14.92-.38-29.85-.61-44.77-1-2.51,0-5,0-7.53-.19,17.43-.47,34.86-.73,52.29-1.13,0-6.28,0-12.56,0-18.84-10.36-.2-20.72-.45-31.08-.61-1.06,0-2.11-.07-3.16-.17q17.12-.37,34.23-.69c.05-6.07,0-12.14,0-18.21-9.32,0-18.64,0-28,0q-86.27,0-172.54,0m106.2,94.82c1.09.2,2.19.37,3.3.47a148.4,148.4,0,0,0,21,.36,65.89,65.89,0,0,0,8.18-.83,134.49,134.49,0,0,0-20-.9c-4.18.15-8.36.35-12.5.9m-122.3,3.7a46.77,46.77,0,0,0,5,.6,148.78,148.78,0,0,0,18.65.27,86.15,86.15,0,0,0,9.07-.86,139.51,139.51,0,0,0-32.74,0M50,202.49c-2.31.11-4.61.22-6.9.51,10.17.71,20.37.91,30.57,1,10.51,0,21-.22,31.51-1-3-.39-6.06-.47-9.09-.59q-23-1-46.09.08m195,6.31c-1.33.12-2.66.3-4,.53,3.74.49,7.51.75,11.28.87a140,140,0,0,0,21.18-.87,74.23,74.23,0,0,0-9.07-.86A146.34,146.34,0,0,0,245,208.8Z" /></g></g></g></g><g id="SvgjsG1026" fill="#7ed321" class="lo-icon">
	<path transform="translate(220.5, 133.5) scale(0.5,0.5)" d="M 49.037 42.164 C 40.728 44.572, 36.549 50.649, 37.229 59.336 C 37.451 62.176, 37.967 65.232, 38.376 66.126 C 38.945 67.372, 35.418 71.064, 23.310 81.895 C 6.206 97.194, 3 100.842, 3 105 C 3 108.678, 6.884 114.142, 10.304 115.274 C 15.468 116.984, 19.084 115.352, 27.750 107.399 L 36 99.828 36.014 123.164 C 36.021 135.999, 36.299 147.512, 36.630 148.750 L 37.233 151 20.551 151 C 10.964 151, 3.046 151.440, 1.934 152.035 C -0.554 153.367, -0.554 156.633, 1.934 157.965 C 3.229 158.658, 35.712 159, 100.212 159 C 185.791 159, 196.803 158.826, 198.777 157.443 C 201.184 155.757, 201.770 152.509, 199.750 152.049 C 199.063 151.892, 190.472 151.572, 180.660 151.337 C 165.135 150.965, 162.897 150.710, 163.410 149.373 C 163.735 148.528, 164 137.037, 164 123.837 L 164 99.838 171.750 106.785 C 176.012 110.607, 180.483 114.243, 181.684 114.867 C 186.829 117.536, 192.669 115.475, 195.506 109.989 C 199.128 102.984, 197.652 100.727, 177.807 82.914 C 165.237 71.632, 161.059 67.315, 161.549 66.115 C 164.312 59.348, 164.123 54.810, 160.851 49.353 C 155.692 40.748, 143.871 39.031, 135.909 45.730 C 130.412 50.356, 128.311 59.240, 131.341 65.047 C 132.646 67.547, 132.369 67.866, 116.367 82.303 L 100.063 97.013 84.078 82.756 C 71.360 71.413, 68.200 68.091, 68.611 66.500 C 69.730 62.169, 70.216 55.996, 69.624 53.637 C 67.621 45.658, 57.138 39.816, 49.037 42.164 M 70 125.432 L 70 151 100 151 L 130 151 130 125.416 L 130 99.832 126.014 102.989 C 123.822 104.725, 121.757 106.584, 121.427 107.119 C 121.096 107.654, 118.574 109.871, 115.823 112.046 C 110.428 116.310, 105.969 117.161, 102.460 114.594 C 100.808 113.386, 100.154 113.386, 97.818 114.594 C 93.192 116.986, 89.598 116.333, 84.340 112.145 C 81.678 110.025, 78.600 107.276, 77.500 106.037 C 76.400 104.798, 74.263 102.902, 72.750 101.824 L 70 99.864 70 125.432 M 0.158 155 C 0.158 156.375, 0.385 156.938, 0.662 156.250 C 0.940 155.563, 0.940 154.438, 0.662 153.750 C 0.385 153.063, 0.158 153.625, 0.158 155" stroke="none"  fill-rule="evenodd"/>
</g><path id="SvgjsPath1027" d="M4.27 0.49Q3.19 0.49 2.52 0Q1.86-0.49 1.54-1.54L1.54-1.54Q1.44-1.86 1.44-2.21L1.44-2.21Q1.44-2.73 1.68-3.06Q1.93-3.40 2.35-3.36L2.35-3.36Q2.66-3.36 2.94-3.12Q3.22-2.87 3.29-2.52L3.29-2.52Q3.40-2.28 3.61-1.30L3.61-1.30Q3.78-1.26 4.17-1.26L4.17-1.26Q5.60-1.26 6.20-2.56L6.20-2.56Q6.51-3.33 6.67-4.27Q6.83-5.22 6.79-5.99L6.79-5.99Q6.83-7.91 6.06-10.15L6.06-10.15Q5.74-11.10 5.04-11.13L5.04-11.13Q3.78-11.20 3.82-12.04L3.82-12.04Q3.78-12.64 4.04-12.90Q4.31-13.16 4.90-13.27L4.90-13.27Q5.25-13.34 5.57-13.55Q5.88-13.76 6.02-14.07L6.02-14.07Q6.48-15.02 6.58-15.63Q6.69-16.24 6.65-18.06L6.65-18.06Q6.62-18.69 6.34-19.53Q6.06-20.37 5.67-20.83L5.67-20.83Q5.25-21.49 4.62-21.49L4.62-21.49Q4.13-21.49 3.90-21.23Q3.68-20.97 3.48-20.53Q3.29-20.09 3.15-19.81L3.15-19.81Q2.84-19.36 2.52-19.36L2.52-19.36Q2.42-19.36 2.21-19.43L2.21-19.43Q1.86-19.50 1.72-19.76Q1.58-20.02 1.58-20.51L1.58-20.51Q1.58-21.67 2.49-22.52Q3.40-23.38 4.62-23.38L4.62-23.38Q6.69-23.38 7.60-21.18L7.60-21.18Q8.05-20.48 8.31-19.43Q8.58-18.38 8.54-17.57L8.54-17.57Q8.47-15.23 7.84-13.69L7.84-13.69Q7.28-12.74 6.65-12.29L6.65-12.29Q7.60-11.27 8.05-9.64Q8.51-8.02 8.51-6.13L8.51-6.13Q8.51-3.01 7.47-1.26Q6.44 0.49 4.27 0.49L4.27 0.49ZM19.04 0.32Q18.24 0.32 17.85 0.07Q17.47-0.18 17.47-0.84L17.47-0.84Q17.47-1.89 17.12-4.41L17.12-4.41L16.98-5.15L13.51-5.67Q13.30-4.87 12.92-2.42L12.92-2.42Q12.71-0.70 12.25-0.14L12.25-0.14Q12.01 0.18 11.55 0.18L11.55 0.18Q11.13 0.18 10.78-0.09Q10.43-0.35 10.43-0.74L10.43-0.74L10.50-0.91L10.54-1.05Q12.85-10.05 14.04-18.80L14.04-18.80Q14.04-18.94 14.07-19.27Q14.11-19.60 14.14-20.23L14.14-20.23Q14.25-21.53 14.37-22.30Q14.49-23.07 14.77-23.45L14.77-23.45L15.96-23.45Q16.45-23.45 16.80-23.22Q17.15-23.00 17.15-22.58L17.15-22.58Q17.15-19.92 17.89-14.67L17.89-14.67Q18.59-9.28 18.59-7.11L18.59-7.11Q18.59-6.90 18.76-6.02L18.76-6.02Q18.94-5.22 18.94-4.97L18.94-4.97Q18.94-4.73 19.29-2.87L19.29-2.87Q19.60-1.19 19.60-0.70L19.60-0.70L19.60-0.67Q19.60 0.11 19.04 0.32L19.04 0.32ZM16.73-6.41Q16.63-6.93 16.63-7.70L16.63-7.70Q16.63-10.85 16.07-15.75L16.07-15.75L15.72-19.39Q14.21-11.17 13.65-6.97L13.65-6.97Q14.18-6.62 16.73-6.41L16.73-6.41ZM36.75 5.64Q36.30 5.64 36.05 5.34Q35.81 5.04 35.84 4.52L35.84 4.52L35.95 2.84Q36.12 0.74 36.12-0.53L36.12-0.53Q35.21-0.42 34.83-0.35L34.83-0.35Q31.47 0.21 28.70 0.21L28.70 0.21Q25.55 0.21 23.55-0.49L23.55-0.49Q23.28-0.60 23.08-1.00Q22.89-1.40 22.89-1.93L22.89-1.93L22.86-7.70L22.89-9.38Q22.93-9.91 22.93-11.03L22.93-11.03Q22.93-11.76 22.89-12.11L22.89-12.11L22.79-14.00Q22.58-18.06 22.58-20.62L22.58-20.62L22.54-21.81Q22.54-23.49 23.42-23.49L23.42-23.49Q24.68-23.49 24.68-21.95L24.68-21.95L24.71-14.53L24.68-7.95Q24.68-7.46 24.75-6.63Q24.82-5.81 24.85-5.43L24.85-5.43Q25.03-3.96 25.03-3.05L25.03-3.05Q25.03-2.63 24.99-2.45L24.99-2.45L24.99-2.28Q24.99-1.82 25.45-1.79L25.45-1.79Q26.18-1.68 27.97-1.54L27.97-1.54Q27.69-2.87 27.69-4.87L27.69-4.87L27.72-7.35L27.76-9.38Q27.76-10.78 27.69-13.51L27.69-13.51Q27.58-15.72 27.58-18.24L27.58-18.24Q27.58-19.78 27.72-22.86L27.72-22.86Q27.79-23.70 28.39-23.70L28.39-23.70L28.80-23.63Q29.40-23.45 29.65-23.22Q29.89-23.00 29.89-22.54L29.89-22.54Q29.89-22.37 29.82-21.95L29.82-21.95Q29.58-20.23 29.58-17.54L29.58-17.54L29.58-16.42L29.61-11.62L29.65-4.06Q29.65-3.29 29.82-2.31L29.82-2.31L29.93-1.58Q31.19-1.58 31.76-1.72Q32.34-1.86 32.62-1.89L32.62-1.89L32.73-5.25Q32.90-9.70 32.90-13.13L32.90-13.13Q32.90-15.65 32.80-19.15L32.80-19.15Q32.80-19.95 32.76-20.34L32.76-20.34L32.73-21.60Q32.73-22.19 32.76-22.51L32.76-22.51Q32.80-23.03 33.04-23.33Q33.29-23.63 33.67-23.63L33.67-23.63Q33.95-23.63 34.30-23.45L34.30-23.45Q34.97-23.21 34.90-22.44L34.90-22.44Q34.76-17.85 34.76-12.71L34.76-12.71Q34.76-6.34 34.79-3.15L34.79-3.15Q34.79-2.91 34.93-2.21L34.93-2.21L35.77-2.31Q36.75-2.49 37.38-2.49L37.38-2.49Q38.01-2.49 38.08-2.28L38.08-2.28Q38.26-2.00 38.26-1.40L38.26-1.40Q38.26-0.74 38.15 0.21L38.15 0.21L38.01 2.03Q37.94 2.84 37.94 4.45L37.94 4.45Q37.94 4.94 37.59 5.30Q37.24 5.67 36.75 5.64L36.75 5.64ZM41.51-0.07Q41.05-0.21 41.02-0.67L41.02-0.67L41.02-1.19Q40.95-2.66 40.88-5.60L40.88-5.60Q40.74-8.16 40.71-9.52L40.71-9.52Q40.60-11.66 40.46-15.93L40.46-15.93Q40.43-16.66 40.39-17.96Q40.36-19.25 40.36-19.92L40.36-19.92Q40.32-20.30 40.32-21.00L40.32-21.00Q40.32-21.81 40.39-22.19L40.39-22.19Q40.53-23.28 41.58-23.21L41.58-23.21Q42.56-23.21 42.63-22.09L42.63-22.09L42.63-21.67L42.60-12.85L42.60-8.68L42.60-6.58Q42.60-6.09 42.67-5.44Q42.73-4.80 42.77-4.52L42.77-4.52Q42.95-5.53 43.35-6.60Q43.75-7.67 43.86-7.91L43.86-7.91Q44.38-9.17 44.63-9.98L44.63-9.98Q45.47-12.67 46.80-16.59L46.80-16.59Q47.08-17.40 47.43-18.55L47.43-18.55Q48.37-21.53 48.72-22.40L48.72-22.40Q49.04-23.24 49.67-23.45L49.67-23.45Q49.98-23.56 50.30-23.56L50.30-23.56Q50.79-23.56 51.31-23.24L51.31-23.24L51.31-21.56Q51.31-18.94 51.42-16.14L51.42-16.14Q51.45-15.54 51.45-14.35L51.45-14.35L51.45-13.34Q51.45-13.02 51.43-12.50Q51.42-11.97 51.45-11.27L51.45-11.27L51.56-1.82Q51.56-1.30 51.31-0.67L51.31-0.67Q51.21-0.39 50.96-0.23Q50.72-0.07 50.44-0.07L50.44-0.07Q49.46-0.07 49.46-0.98L49.46-0.98Q49.46-2.03 49.56-3.01L49.56-3.01Q49.63-4.34 49.63-5.04L49.63-5.04Q49.56-11.97 49.46-15.40L49.46-15.40Q49.46-15.93 49.32-17.12L49.32-17.12L49.21-18.38Q48.90-18.03 48.86-17.92L48.86-17.92L48.30-16.21Q47.74-14.39 47.43-13.51L47.43-13.51L44.38-5.04L42.81-0.74Q42.53 0 41.97 0L41.97 0Q41.86 0 41.51-0.07L41.51-0.07ZM58.35-0.11L57.72-0.56L57.68-1.93Q57.65-2.52 57.65-3.26L57.65-3.26L57.68-4.45Q57.58-4.83 57.16-12.11Q56.74-19.39 56.67-21.46L56.67-21.46Q54.64-21.53 54.08-21.88L54.08-21.88Q53.69-22.16 53.69-22.51L53.69-22.51Q53.69-22.79 54.06-23.01Q54.43-23.24 54.81-23.24L54.81-23.24Q55.79-23.24 57.19-23.10L57.19-23.10Q58.52-22.93 59.57-22.93L59.57-22.93L59.85-22.93L60.13-22.93Q61.22-22.93 61.22-22.09L61.22-22.09Q61.22-21.67 60.87-21.40Q60.52-21.14 60.06-21.14L60.06-21.14Q59.75-21.14 59.15-21.25L59.15-21.25L58.45-21.39L58.42-21.21L58.38-21.04Q58.38-17.92 58.98-11.10L58.98-11.10Q59.54-4.69 59.54-1.16L59.54-1.16Q59.54-0.74 59.17-0.42Q58.80-0.11 58.35-0.11L58.35-0.11ZM71.61 0.32Q70.81 0.32 70.42 0.07Q70.04-0.18 70.04-0.84L70.04-0.84Q70.04-1.89 69.69-4.41L69.69-4.41L69.55-5.15L66.08-5.67Q65.87-4.87 65.48-2.42L65.48-2.42Q65.28-0.70 64.82-0.14L64.82-0.14Q64.58 0.18 64.12 0.18L64.12 0.18Q63.70 0.18 63.35-0.09Q63.00-0.35 63.00-0.74L63.00-0.74L63.07-0.91L63.11-1.05Q65.42-10.05 66.61-18.80L66.61-18.80Q66.61-18.94 66.64-19.27Q66.68-19.60 66.71-20.23L66.71-20.23Q66.82-21.53 66.94-22.30Q67.06-23.07 67.34-23.45L67.34-23.45L68.53-23.45Q69.02-23.45 69.37-23.22Q69.72-23.00 69.72-22.58L69.72-22.58Q69.72-19.92 70.46-14.67L70.46-14.67Q71.16-9.28 71.16-7.11L71.16-7.11Q71.16-6.90 71.33-6.02L71.33-6.02Q71.51-5.22 71.51-4.97L71.51-4.97Q71.51-4.73 71.86-2.87L71.86-2.87Q72.17-1.19 72.17-0.70L72.17-0.70L72.17-0.67Q72.17 0.11 71.61 0.32L71.61 0.32ZM69.30-6.41Q69.20-6.93 69.20-7.70L69.20-7.70Q69.20-10.85 68.64-15.75L68.64-15.75L68.29-19.39Q66.78-11.17 66.22-6.97L66.22-6.97Q66.75-6.62 69.30-6.41L69.30-6.41ZM83.20 0.28Q81.59 0.28 81.59-0.60L81.59-0.60L81.66-4.90L81.73-9.21Q81.73-11.55 81.62-16.31L81.62-16.31Q81.52-21.04 81.52-23.42L81.52-23.42L81.52-23.63Q81.52-24.54 81.69-25.31L81.69-25.31Q81.90-26.25 82.81-26.25L82.81-26.25Q85.26-26.25 86.70-24.68Q88.13-23.10 88.13-20.51L88.13-20.51Q88.13-18.94 87.29-17.22Q86.45-15.51 85.30-14.67L85.30-14.67Q87.33-13.30 88.29-11.15Q89.25-9.00 89.25-6.41L89.25-6.41Q89.25-5.18 88.41-3.36L88.41-3.36Q87.40-1.19 85.65-0.25L85.65-0.25Q84.59 0.28 83.34 0.28L83.34 0.28L83.20 0.28ZM83.55-15.19Q84.45-15.40 85.09-16.70L85.09-16.70Q85.61-17.68 86.06-19.08L86.06-19.08Q86.17-19.46 86.42-20.06L86.42-20.06L86.42-21.28Q86.42-22.33 85.65-23.31Q84.88-24.29 83.90-24.29L83.90-24.29Q83.41-24.29 83.41-23.21L83.41-23.21Q83.41-20.90 83.48-19.08L83.48-19.08L83.55-15.19ZM83.69-1.54Q85.40-1.79 86.42-3.12Q87.43-4.45 87.43-6.30L87.43-6.30Q87.43-7.91 87.17-9.26Q86.91-10.61 86.48-11.31L86.48-11.31Q86.10-11.97 85.72-12.43Q85.33-12.88 85.05-13.02L85.05-13.02L84.77-13.13L83.51-13.13Q83.69-9.10 83.69-1.54L83.69-1.54ZM99.47 0.32Q98.66 0.32 98.28 0.07Q97.89-0.18 97.89-0.84L97.89-0.84Q97.89-1.89 97.55-4.41L97.55-4.41L97.41-5.15L93.94-5.67Q93.73-4.87 93.34-2.42L93.34-2.42Q93.13-0.70 92.68-0.14L92.68-0.14Q92.44 0.18 91.98 0.18L91.98 0.18Q91.56 0.18 91.21-0.09Q90.86-0.35 90.86-0.74L90.86-0.74L90.93-0.91L90.97-1.05Q93.27-10.05 94.47-18.80L94.47-18.80Q94.47-18.94 94.50-19.27Q94.53-19.60 94.57-20.23L94.57-20.23Q94.67-21.53 94.80-22.30Q94.92-23.07 95.20-23.45L95.20-23.45L96.39-23.45Q96.88-23.45 97.23-23.22Q97.58-23.00 97.58-22.58L97.58-22.58Q97.58-19.92 98.31-14.67L98.31-14.67Q99.02-9.28 99.02-7.11L99.02-7.11Q99.02-6.90 99.19-6.02L99.19-6.02Q99.36-5.22 99.36-4.97L99.36-4.97Q99.36-4.73 99.72-2.87L99.72-2.87Q100.03-1.19 100.03-0.70L100.03-0.70L100.03-0.67Q100.03 0.11 99.47 0.32L99.47 0.32ZM97.16-6.41Q97.05-6.93 97.05-7.70L97.05-7.70Q97.05-10.85 96.50-15.75L96.50-15.75L96.14-19.39Q94.64-11.17 94.08-6.97L94.08-6.97Q94.61-6.62 97.16-6.41L97.16-6.41ZM106.58 0.28Q105.63 0.28 104.47 0.04L104.47 0.04Q104.06-0.07 103.93-0.39Q103.81-0.70 103.81-1.16L103.81-1.16Q103.70-3.33 103.64-7.70L103.64-7.70L103.64-9.91Q103.64-12.11 103.56-13.23L103.56-13.23Q103.53-13.65 103.14-19.46L103.14-19.46L102.97-22.30Q102.97-22.72 103.11-22.87Q103.25-23.03 103.60-23.03L103.60-23.03Q104.83-23.03 104.97-22.02L104.97-22.02Q105.25-20.23 105.35-18.73L105.35-18.73Q105.49-16.00 105.49-14.60L105.49-14.60L105.45-11.76Q105.39-9.80 105.39-8.89L105.39-8.89Q105.39-6.37 105.63-2.80L105.63-2.80L105.70-1.44Q105.70-1.33 105.77-1.16L105.77-1.16Q105.88-1.16 107.03-1.14Q108.19-1.12 108.19-1.33L108.19-1.33Q108.22-1.82 108.20-2.21Q108.19-2.59 108.19-2.87L108.19-2.87Q108.15-3.22 108.15-3.89L108.15-3.89Q108.15-7.39 108.12-9.14L108.12-9.14L108.01-13.09Q107.87-17.50 107.87-19.64L107.87-19.64Q107.87-21.14 107.97-22.54L107.97-22.54Q108.01-23.00 108.20-23.15Q108.39-23.31 108.89-23.24L108.89-23.24Q109.59-23.14 109.78-22.89Q109.97-22.65 109.94-21.98L109.94-21.98Q109.72-19.92 109.72-16.84L109.72-16.84L109.76-13.72Q109.80-12.71 109.80-10.68L109.80-10.68Q109.72-7.25 109.72-5.60L109.72-5.60Q109.80-3.99 109.87-3.12L109.87-3.12L109.97-1.37L113.12-1.37L113.12-2.70L113.16-8.29Q113.16-10.15 113.12-11.10L113.12-11.10Q113.09-12.60 113.02-14.61Q112.95-16.63 112.91-17.68L112.91-17.68L112.81-21.04Q112.81-22.19 112.84-22.79L112.84-22.79Q112.88-23.14 113.02-23.26Q113.16-23.38 113.58-23.38L113.58-23.38Q114.24-23.35 114.52-23.03Q114.80-22.72 114.77-22.05L114.77-22.05L114.80-17.54L114.84-16.66Q114.91-15.47 114.91-14.91L114.91-14.91Q114.91-14.14 114.87-13.58Q114.84-13.02 114.80-12.67L114.80-12.67Q114.66-11.13 114.66-10.36L114.66-10.36L114.70-9.45Q114.77-8.82 114.77-8.51L114.77-8.51Q114.80-7.95 114.78-7.51Q114.77-7.07 114.77-6.79L114.77-6.79L114.77-5.08Q114.77-4.34 114.80-3.78Q114.84-3.22 114.87-2.84L114.87-2.84L114.94-2.07Q114.94-1.93 115.03-1.72Q115.12-1.51 115.15-1.40L115.15-1.40Q115.29-1.05 115.29-0.88L115.29-0.88Q115.29-0.32 114.63-0.14L114.63-0.14Q113.92 0.04 112.88 0.04L112.88 0.04L108.57 0.11Q108.08 0.11 107.59 0.21L107.59 0.21Q106.89 0.28 106.58 0.28L106.58 0.28ZM121.10 0.46Q120.65 0.46 120.28 0.14Q119.91-0.18 119.88-0.63L119.88-0.63L119.88-1.54L119.88-2.24Q119.84-2.56 119.84-2.98L119.84-2.98Q119.84-3.71 119.73-5.22L119.73-5.22L119.67-7.46Q119.67-9.17 119.77-12.57L119.77-12.57Q119.91-15.61 119.91-17.68L119.91-17.68Q119.91-18.17 119.81-19.15L119.81-19.15Q119.70-20.16 119.70-20.62L119.70-20.62Q119.70-23.10 121.17-23.10L121.17-23.10Q122.33-23.10 123.85-22.65Q125.37-22.19 125.37-21.56L125.37-21.56Q125.37-21.21 125.07-20.91Q124.78-20.62 124.36-20.44L124.36-20.44Q122.89-20.97 121.70-21.14L121.70-21.14Q121.73-20.62 121.73-19.64L121.73-19.64Q121.73-18.24 121.70-17.12L121.70-17.12Q121.59-15.44 121.59-14.60L121.59-14.60L121.70-14.04L122.26-14.07Q122.54-14.11 122.95-14.11L122.95-14.11Q124.64-14.11 124.64-13.13L124.64-13.13Q124.64-12.74 124.32-12.48Q124.01-12.22 123.52-12.22L123.52-12.22Q122.89-12.22 122.54-12.29L122.54-12.29L121.66-12.29Q121.73-11.38 121.73-9.63L121.73-9.63Q121.73-7.88 121.70-6.48L121.70-6.48Q121.59-4.34 121.59-3.29L121.59-3.29Q121.59-1.33 121.66-1.33L121.66-1.33L122.81-1.37Q123.41-1.40 124.25-1.40L124.25-1.40Q125.58-1.40 125.58-0.56L125.58-0.56Q125.58-0.07 125.14 0.19Q124.70 0.46 124.08 0.46L124.08 0.46L121.10 0.46ZM129.75 0.28Q129.71 0.14 129.62-0.21Q129.53-0.56 129.57-0.81L129.57-0.81Q129.64-4.87 129.78-6.86L129.78-6.86Q129.81-7.60 129.81-9.03L129.81-9.03Q129.81-11.62 129.57-15.30L129.57-15.30Q129.36-19.78 129.36-22.09L129.36-22.09Q129.36-22.61 129.78-23.03Q130.20-23.45 130.80-23.45L130.80-23.45Q132.79-23.45 134.26-23.14L134.26-23.14Q134.96-23.00 135.17-22.66Q135.38-22.33 135.31-21.56L135.31-21.56Q134.82-21.25 134.30-21.25L134.30-21.25Q134.12-21.25 133.77-21.32L133.77-21.32Q133.46-21.39 132.09-21.46L132.09-21.46L132.02-21.46Q131.53-21.46 131.53-20.93L131.53-20.93Q131.35-15.86 131.35-15.16L131.35-15.16Q131.43-11.52 131.50-9.66L131.50-9.66Q131.50-9.42 131.53-9.07Q131.56-8.72 131.53-8.47L131.53-8.47Q131.43-6.86 131.43-5.08L131.43-5.08Q131.43-2.17 131.53-1.02L131.53-1.02Q131.50-0.25 131.28 0.05Q131.07 0.35 130.52 0.35L130.52 0.35Q130.38 0.35 129.75 0.28L129.75 0.28ZM141.78 0.67Q140.88 0.67 140.11 0.09Q139.34-0.49 138.84-1.47L138.84-1.47Q137.83-3.61 137.59-6.13L137.59-6.13Q137.27-8.51 137.27-10.71L137.27-10.71Q137.27-11.13 137.31-11.41L137.31-11.41L137.31-12.04Q137.31-12.22 137.27-12.22L137.27-12.22L137.27-12.85L137.31-15.30Q137.34-16.42 137.59-18.87L137.59-18.87Q137.76-20.55 138.39-22.12L138.39-22.12Q138.64-22.82 139.02-23.19Q139.41-23.56 139.90-23.56L139.90-23.56Q141.30-23.56 142.42-23.05Q143.53-22.54 144.31-21.63L144.31-21.63Q145.00-20.76 145.50-19.48Q145.99-18.20 146.19-16.77L146.19-16.77Q146.41-15.30 146.41-13.65L146.41-13.65L146.41-13.37Q146.41-12.29 146.44-11.41L146.44-11.41L146.48-9.42Q146.48 0.67 141.78 0.67L141.78 0.67ZM141.65-0.81Q142.28-0.81 142.80-1.31Q143.33-1.82 143.61-2.70L143.61-2.70Q144.27-4.48 144.41-6.55L144.41-6.55Q144.59-8.33 144.59-9.63L144.59-9.63Q144.59-11.20 144.34-13.76L144.34-13.76Q144.13-16.45 144.13-17.78L144.13-17.78L144.13-18.41Q144.06-19.74 143.24-20.72Q142.42-21.70 141.22-21.70L141.22-21.70Q140.03-21.70 139.65-20.34L139.65-20.34Q139.30-19.25 139.30-17.54L139.30-17.54Q139.30-16.87 139.34-16.42L139.34-16.42L139.34-15.47L139.27-13.86Q139.19-13.13 139.19-12.25L139.19-12.25Q139.19-10.36 139.30-8.51L139.30-8.51Q139.44-5.88 140-3.40L140-3.40Q140.56-0.81 141.65-0.81L141.65-0.81ZM158.20 0.67L157.47 0.25Q157.01-1.61 157.01-4.90L157.01-4.90L157.08-8.02Q157.15-9.42 157.15-11.13L157.15-11.13Q156.94-11.62 156.94-12.01L156.94-12.01L156.94-12.11Q157.29-12.78 157.29-15.12L157.29-15.12L157.32-16.73Q157.36-17.50 157.36-18.45L157.36-18.45Q157.36-20.51 157.08-21.70L157.08-21.70Q157.19-22.19 157.43-22.56Q157.68-22.93 158.03-22.93L158.03-22.93L159.56-22.93Q160.55-22.93 161.28-22.49Q162.02-22.05 162.40-21.25L162.40-21.25Q163.10-19.81 163.10-17.85L163.10-17.85Q163.10-16.45 163.06-15.65L163.06-15.65Q163.00-14.63 162.72-13.79L162.72-13.79Q162.61-13.34 162.42-13.04Q162.22-12.74 161.88-12.32L161.88-12.32Q161.38-11.73 160.27-11.20L160.27-11.20Q159.81-10.96 159.07-10.75L159.07-10.75L159.07-7.00L159.15-4.76L159.22-3.68Q159.35-1.72 159.35-0.35L159.35-0.35Q159.35 0.07 159.00 0.37Q158.66 0.67 158.20 0.67L158.20 0.67ZM159.11-12.18Q161.18-12.50 161.18-18.10L161.18-18.10Q161.18-19.11 161.07-19.67L161.07-19.67Q160.97-20.09 160.79-20.35Q160.62-20.62 160.27-20.79L160.27-20.79Q159.88-21.00 159.43-21.00L159.43-21.00Q159.43-21.04 159.04-21.04L159.04-21.04L159.04-19.04Q159.04-16.98 159.07-15.37L159.07-15.37Q159.07-13.55 159.11-12.99L159.11-12.99L159.11-12.25L159.11-12.18ZM168.14 0.46Q167.69 0.46 167.32 0.14Q166.95-0.18 166.92-0.63L166.92-0.63L166.92-1.54L166.92-2.24Q166.88-2.56 166.88-2.98L166.88-2.98Q166.88-3.71 166.78-5.22L166.78-5.22L166.71-7.46Q166.71-9.17 166.81-12.57L166.81-12.57Q166.95-15.61 166.95-17.68L166.95-17.68Q166.95-18.17 166.84-19.15L166.84-19.15Q166.74-20.16 166.74-20.62L166.74-20.62Q166.74-23.10 168.21-23.10L168.21-23.10Q169.37-23.10 170.89-22.65Q172.41-22.19 172.41-21.56L172.41-21.56Q172.41-21.21 172.11-20.91Q171.81-20.62 171.40-20.44L171.40-20.44Q169.93-20.97 168.74-21.14L168.74-21.14Q168.77-20.62 168.77-19.64L168.77-19.64Q168.77-18.24 168.74-17.12L168.74-17.12Q168.63-15.44 168.63-14.60L168.63-14.60L168.74-14.04L169.30-14.07Q169.58-14.11 170.00-14.11L170.00-14.11Q171.68-14.11 171.68-13.13L171.68-13.13Q171.68-12.74 171.36-12.48Q171.05-12.22 170.56-12.22L170.56-12.22Q169.93-12.22 169.58-12.29L169.58-12.29L168.70-12.29Q168.77-11.38 168.77-9.63L168.77-9.63Q168.77-7.88 168.74-6.48L168.74-6.48Q168.63-4.34 168.63-3.29L168.63-3.29Q168.63-1.33 168.70-1.33L168.70-1.33L169.86-1.37Q170.45-1.40 171.29-1.40L171.29-1.40Q172.62-1.40 172.62-0.56L172.62-0.56Q172.62-0.07 172.18 0.19Q171.75 0.46 171.12 0.46L171.12 0.46L168.14 0.46ZM177.84 0Q176.72 0.07 176.78-1.12L176.78-1.12L176.82-3.54Q176.86-4.31 176.86-5.92L176.86-5.92L176.86-8.51Q176.86-10.22 176.82-11.10L176.82-11.10Q176.78-12.22 176.78-14.42L176.78-14.42L176.78-17.71L176.78-18.59Q176.78-19.53 176.73-20.16Q176.68-20.79 176.47-21.49L176.47-21.49Q176.40-21.77 176.40-21.91L176.40-21.91Q176.40-22.51 176.84-22.96Q177.28-23.42 177.94-23.45L177.94-23.45Q178.89-23.49 179.78-23.56Q180.67-23.63 181.51-23.80L181.51-23.80Q181.83-23.94 182.21-23.64Q182.59-23.35 182.67-23.00L182.67-23.00Q182.74-22.72 182.53-22.45Q182.31-22.19 181.97-22.09L181.97-22.09Q181.23-21.88 178.78-21.60L178.78-21.60L178.47-12.95Q180.08-12.78 180.95-12.04Q181.83-11.31 182.14-9.49L182.14-9.49Q182.53-8.05 182.53-6.41L182.53-6.41Q182.53-5.36 182.31-4.24L182.31-4.24Q181.83-1.96 179.97-0.88L179.97-0.88Q179.76-0.74 179.36-0.49Q178.96-0.25 178.59-0.12Q178.22 0 177.84 0L177.84 0ZM178.53-1.89Q179.24-2.10 179.80-2.73Q180.36-3.36 180.53-4.10L180.53-4.10Q180.84-5.46 180.84-6.76L180.84-6.76Q180.84-8.12 180.53-9.42L180.53-9.42Q180.32-10.26 179.88-10.73Q179.45-11.20 178.53-11.24L178.53-11.24L178.53-1.89ZM187.57 0.46Q187.11 0.46 186.74 0.14Q186.38-0.18 186.34-0.63L186.34-0.63L186.34-1.54L186.34-2.24Q186.31-2.56 186.31-2.98L186.31-2.98Q186.31-3.71 186.20-5.22L186.20-5.22L186.13-7.46Q186.13-9.17 186.24-12.57L186.24-12.57Q186.38-15.61 186.38-17.68L186.38-17.68Q186.38-18.17 186.27-19.15L186.27-19.15Q186.17-20.16 186.17-20.62L186.17-20.62Q186.17-23.10 187.64-23.10L187.64-23.10Q188.79-23.10 190.31-22.65Q191.84-22.19 191.84-21.56L191.84-21.56Q191.84-21.21 191.54-20.91Q191.24-20.62 190.82-20.44L190.82-20.44Q189.35-20.97 188.16-21.14L188.16-21.14Q188.20-20.62 188.20-19.64L188.20-19.64Q188.20-18.24 188.16-17.12L188.16-17.12Q188.06-15.44 188.06-14.60L188.06-14.60L188.16-14.04L188.72-14.07Q189.00-14.11 189.42-14.11L189.42-14.11Q191.10-14.11 191.10-13.13L191.10-13.13Q191.10-12.74 190.79-12.48Q190.47-12.22 189.98-12.22L189.98-12.22Q189.35-12.22 189.00-12.29L189.00-12.29L188.13-12.29Q188.20-11.38 188.20-9.63L188.20-9.63Q188.20-7.88 188.16-6.48L188.16-6.48Q188.06-4.34 188.06-3.29L188.06-3.29Q188.06-1.33 188.13-1.33L188.13-1.33L189.28-1.37Q189.88-1.40 190.72-1.40L190.72-1.40Q192.05-1.40 192.05-0.56L192.05-0.56Q192.05-0.07 191.61 0.19Q191.17 0.46 190.54 0.46L190.54 0.46L187.57 0.46ZM202.06 0Q200.87 0 200.87-5.78L200.87-5.78L200.90-7.77L200.94-9.38L200.94-9.49L200.94-9.84Q200.97-10.12 200.97-10.50L200.97-10.50Q200.97-10.57 200.87-10.68L200.87-10.68Q200.76-10.78 200.76-10.85L200.76-10.85L200.76-10.89Q200.59-10.82 200.13-10.82L200.13-10.82Q199.68-10.82 199.01-10.96L199.01-10.96Q198.80-10.99 197.89-11.13L197.89-11.13L197.89-7.11Q197.89-6.20 198.00-4.24L198.00-4.24Q198.10-2.31 198.10-1.37L198.10-1.37Q198.10-0.84 197.82-0.46Q197.54-0.07 197.09-0.07L197.09-0.07Q196.42-0.07 196.14-1.37L196.14-1.37Q195.86-2.70 195.86-4.83L195.86-4.83L195.93-7.67Q195.97-8.86 195.97-10.19L195.97-10.19L195.97-10.78L195.97-11.27Q195.97-11.83 195.93-12.01L195.93-12.01L195.93-12.18L196.04-14.21Q196.04-15.54 195.93-18.17L195.93-18.17Q195.83-20.79 195.83-22.12L195.83-22.12Q195.83-22.54 196.11-22.86Q196.39-23.17 196.81-23.17L196.81-23.17Q197.93-23.17 197.93-21.07L197.93-21.07L197.86-16.73Q197.79-14.77 197.79-12.36L197.79-12.36Q198.31-12.18 199.68-12.18L199.68-12.18L200.97-12.18Q201.04-12.39 201.04-12.60L201.04-12.60Q201.04-14.28 200.83-17.57L200.83-17.57Q200.59-20.65 200.59-22.58L200.59-22.58Q200.59-22.96 200.88-23.22Q201.18-23.49 201.60-23.49L201.60-23.49Q201.85-23.49 202.30-23.31L202.30-23.31L202.62-23.17Q202.62-18.20 202.97-9.91L202.97-9.91L203.28-1.05Q203.28-0.56 202.91-0.28Q202.55 0 202.06 0L202.06 0ZM208.92 0.07Q208.78 0.04 208.46 0Q208.15-0.04 207.94-0.18L207.94-0.18Q207.41-0.53 207.52-1.37L207.52-1.37L207.55-2.14Q207.69-4.03 207.69-4.97L207.69-4.97Q207.69-10.47 207.59-16.03L207.59-16.03Q207.59-18.90 207.41-22.12L207.41-22.12Q207.38-22.68 207.67-23.07Q207.97-23.45 208.43-23.45L208.43-23.45Q208.85-23.45 209.28-23.07Q209.72-22.68 209.69-22.16L209.69-22.16Q209.44-21.11 209.44-17.96L209.44-17.96L209.44-15.16Q209.44-14.39 209.51-12.71L209.51-12.71Q209.62-12.85 210.18-14.00L210.18-14.00Q210.25-14.14 210.42-14.44Q210.60-14.74 210.67-15.05L210.67-15.05Q211.82-18.55 212.56-20.44L212.56-20.44Q212.87-21.46 213.40-22.17Q213.92-22.89 214.83-23.17L214.83-23.17Q215.15-23.28 215.69-23.10Q216.23-22.93 216.41-22.68L216.41-22.68Q216.62-22.44 216.62-22.09L216.62-22.09Q216.62-21.74 216.39-21.46Q216.16-21.18 215.81-21.11L215.81-21.11Q214.94-20.97 214.45-20.48Q213.96-19.99 213.73-19.44Q213.50-18.90 213.19-17.82L213.19-17.82L211.79-14.39Q211.68-14.14 211.49-13.55Q211.30-12.95 211.12-12.64L211.12-12.64Q211.05-12.53 210.91-12.43Q210.77-12.32 210.67-12.22L210.67-12.22Q210.91-12.39 211.31-12.11Q211.72-11.83 212.14-11.34L212.14-11.34Q212.42-10.78 212.54-10.12Q212.66-9.45 212.70-9.35L212.70-9.35Q212.77-8.79 212.84-8.51L212.84-8.51Q213.26-7.39 213.43-6.46Q213.61-5.53 213.68-4.27L213.68-4.27Q213.78-3.01 214.38-2.07L214.38-2.07Q214.55-2.03 214.78-2.00Q215.01-1.96 215.29-1.93L215.29-1.93Q215.85-1.89 216.02-1.23L216.02-1.23Q216.06-1.16 216.06-0.98L216.06-0.98Q216.06-0.60 215.71-0.25L215.71-0.25Q215.18 0.28 214.38 0.28L214.38 0.28Q213.78 0.28 213.24-0.04Q212.70-0.35 212.45-0.88L212.45-0.88Q212.24-1.23 212.10-1.82L212.10-1.82Q211.86-3.33 211.68-4.87L211.68-4.87Q211.54-7.00 211.38-8.10Q211.23-9.21 210.70-10.22L210.70-10.22Q210.56-10.47 210.42-10.59Q210.28-10.71 210.04-10.71L210.04-10.71Q209.83-10.71 209.51-10.61L209.51-10.61Q209.44-8.09 209.44-5.71L209.44-5.71Q209.44-4.20 209.58-1.12L209.58-1.12Q209.62-0.74 209.46-0.51Q209.30-0.28 208.92 0.07L208.92 0.07ZM226.52 0.32Q225.72 0.32 225.33 0.07Q224.95-0.18 224.95-0.84L224.95-0.84Q224.95-1.89 224.60-4.41L224.60-4.41L224.46-5.15L220.99-5.67Q220.78-4.87 220.40-2.42L220.40-2.42Q220.19-0.70 219.73-0.14L219.73-0.14Q219.49 0.18 219.03 0.18L219.03 0.18Q218.61 0.18 218.26-0.09Q217.91-0.35 217.91-0.74L217.91-0.74L217.98-0.91L218.02-1.05Q220.33-10.05 221.52-18.80L221.52-18.80Q221.52-18.94 221.55-19.27Q221.59-19.60 221.62-20.23L221.62-20.23Q221.73-21.53 221.85-22.30Q221.97-23.07 222.25-23.45L222.25-23.45L223.44-23.45Q223.93-23.45 224.28-23.22Q224.63-23.00 224.63-22.58L224.63-22.58Q224.63-19.92 225.37-14.67L225.37-14.67Q226.07-9.28 226.07-7.11L226.07-7.11Q226.07-6.90 226.24-6.02L226.24-6.02Q226.42-5.22 226.42-4.97L226.42-4.97Q226.42-4.73 226.77-2.87L226.77-2.87Q227.08-1.19 227.08-0.70L227.08-0.70L227.08-0.67Q227.08 0.11 226.52 0.32L226.52 0.32ZM224.21-6.41Q224.11-6.93 224.11-7.70L224.11-7.70Q224.11-10.85 223.55-15.75L223.55-15.75L223.20-19.39Q221.69-11.17 221.13-6.97L221.13-6.97Q221.66-6.62 224.21-6.41L224.21-6.41Z" fill="#7ed321" transform="matrix(1,0,0,1,154.74,420.30390625)" class="lo-tagline"></path><path id="SvgjsPath1028" d="M30.36-14.10Q30.44-13.19 30.44-12.69L30.44-12.69L30.40-11.70Q30.21-9.31 29.60-7.68L29.60-7.68Q28.80-5.47 27.59-3.88L27.59-3.88Q26.98-3.00 26.07-2.20L26.07-2.20Q25.35-1.56 24.09-0.91L24.09-0.91Q23.18-0.49 22.88-0.42L22.88-0.42L22.46-0.27L21.93-0.15Q20.90 0.15 19.72 0.19L19.72 0.19Q19.61 0.23 19.23 0.23L19.23 0.23Q18.73 0.23 18.16 0.11L18.16 0.11L18.05 0.08L17.82 0.08Q17.40 0.04 16.91-0.11Q16.42-0.27 15.88-0.46L15.88-0.46Q14.63-1.03 14.10-1.41L14.10-1.41Q13.53-1.86 12.69-2.85L12.69-2.85Q12.24-3.34 11.63-4.48L11.63-4.48Q11.25-5.21 10.94-6.16L10.94-6.16Q10.45-7.75 10.37-9.46L10.37-9.46L7.26-9.46L7.26-6.99Q7.26-5.09 7.30-4.14L7.30-4.14L7.49-0.19Q7.37-0.19 7.28-0.42Q7.18-0.65 7.03-0.65L7.03-0.65Q6.69-0.65 6.31-0.46Q5.93-0.27 5.85-0.23L5.85-0.23Q5.55-0.15 5.43-0.15L5.43-0.15Q5.40-0.15 5.17-0.23L5.17-0.23Q5.05-0.30 4.90-0.49Q4.75-0.68 4.56-0.76L4.56-0.76Q4.22-0.76 3.57-0.19L3.57-0.19Q3.53-0.15 3.42-0.15L3.42-0.15L3.08-0.19L2.85-0.11Q2.74-2.96 2.74-5.85L2.74-5.85Q2.70-6.50 2.70-7.75L2.70-7.75Q2.66-9.92 2.66-14.33L2.66-14.33Q2.66-17.06 2.85-20.18L2.85-20.18Q2.89-20.75 2.93-21.51Q2.96-22.27 3.00-23.26L3.00-23.26Q3.31-23.37 3.57-23.37L3.57-23.37L5.74-23.03Q5.93-23.03 6.12-23.22L6.12-23.22Q6.19-23.33 6.27-23.56Q6.35-23.79 6.42-23.79L6.42-23.79Q6.50-23.79 6.54-23.52L6.54-23.52L6.57-23.33L6.54-23.07L6.54-21.70Q6.61-21.36 6.80-21.18Q6.99-21.01 7.07-20.94L7.07-20.94L7.14-21.96Q7.14-23.33 7.45-23.71L7.45-23.71L7.45-21.01Q7.45-20.37 7.41-20.03L7.41-20.03Q7.37-19.08 7.37-17.14L7.37-17.14L7.37-13.41L10.64-13.34Q10.94-14.74 11.44-16.04L11.44-16.04Q11.93-17.21 13.00-19.04L13.00-19.04Q14.21-20.67 15.35-21.58L15.35-21.58L15.54-21.70Q16.00-21.70 16.15-21.43L16.15-21.43Q16.26-21.36 16.34-21.13L16.34-21.13L16.38-20.82L16.57-20.18Q16.64-19.84 16.83-19.65L16.83-19.65L17.02-19.19Q17.18-19.04 17.37-19.04L17.37-19.04L17.67-19.08Q17.75-19.11 18.07-19.27Q18.39-19.42 18.58-19.42L18.58-19.42Q18.70-19.42 18.70-19.38L18.70-19.38Q18.70-19.27 18.39-19.04L18.39-19.04Q18.20-18.73 17.86-18.54L17.86-18.54Q17.37-18.05 17.21-17.94L17.21-17.94Q16.49-17.33 16.19-16.61L16.19-16.61Q16.00-16.23 16.00-15.88L16.00-15.88L16.00-15.73Q16.00-15.58 16.07-15.20L16.07-15.20Q16.30-15.69 16.80-16.34L16.80-16.34Q17.29-16.87 17.48-17.21L17.48-17.21Q18.13-17.86 18.54-18.18Q18.96-18.51 19.27-18.43L19.27-18.43Q18.24-17.94 17.21-16.45L17.21-16.45Q16.38-15.12 15.85-13.60L15.85-13.60Q15.66-13.00 15.56-12.20Q15.47-11.40 15.43-11.10L15.43-11.10Q15.39-10.83 15.39-10.26L15.39-10.26Q15.39-9.35 15.54-8.70L15.54-8.70Q15.58-8.28 15.77-7.87L15.77-7.87Q15.81-7.71 15.94-7.31Q16.07-6.92 16.26-6.65L16.26-6.65Q16.45-6.31 16.87-5.89L16.87-5.89Q17.29-5.47 17.48-5.40L17.48-5.40Q17.86-5.13 18.24-5.09L18.24-5.09Q18.58-4.98 19.27-4.90L19.27-4.90Q19.49-4.98 19.84-5.00Q20.18-5.02 20.37-5.02L20.37-5.02Q20.75-5.05 20.98-5.21L20.98-5.21Q21.05-5.21 21.15-5.22Q21.24-5.24 21.39-5.28L21.39-5.28L21.51-5.36Q21.96-5.47 22.38-5.81L22.38-5.81Q22.80-6.04 23.26-6.50L23.26-6.50Q24.09-7.45 24.59-8.51L24.59-8.51Q25.42-10.45 25.42-12.77L25.42-12.77L25.42-13.34Q25.38-14.36 25.08-15.39L25.08-15.39L25.00-15.66Q24.74-16.38 23.90-17.52L23.90-17.52L23.41-18.01Q23.22-18.20 23.10-18.24L23.10-18.24L22.88-18.43L22.38-18.66L22.00-18.70Q22.00-18.70 21.47-18.62L21.47-18.62Q21.13-18.62 20.63-18.51L20.63-18.51L19.72-18.24Q19.42-18.24 19.38-18.28Q19.34-18.32 19.42-18.37Q19.49-18.43 19.49-18.51L19.49-18.51Q19.53-18.54 19.53-18.77L19.53-18.77Q19.49-18.89 19.38-19L19.38-19Q19.27-19.23 19.08-19.36Q18.89-19.49 18.81-19.53L18.81-19.53Q18.35-19.72 18.35-19.84L18.35-19.84Q18.32-20.03 18.16-20.14L18.16-20.14L18.16-20.29Q18.16-20.48 18.24-20.56L18.24-20.56Q18.24-20.56 18.77-20.94L18.77-20.94Q18.85-20.98 19.02-21.07Q19.19-21.17 19.19-21.24L19.19-21.24L19.19-21.51Q19.11-21.70 18.81-21.81L18.81-21.81L17.97-22.23Q17.86-22.31 17.86-22.50L17.86-22.50L17.82-22.88Q17.82-22.99 17.71-23.03L17.71-23.03Q18.01-23.10 18.43-23.18Q18.85-23.26 19.46-23.41L19.46-23.41L20.71-23.71L22.31-23.71Q22.88-23.71 23.71-23.48L23.71-23.48Q24.32-23.37 25.19-22.80L25.19-22.80L25.80-22.50L26.33-22.00Q27.02-21.51 27.40-21.13L27.40-21.13Q28.31-20.10 28.92-18.92L28.92-18.92Q28.99-18.73 29.32-18.09Q29.64-17.44 29.79-16.91L29.79-16.91L29.91-16.57Q30.25-15.35 30.36-14.10L30.36-14.10ZM48.22-8.09Q47.69-7.75 46.04-7.18Q44.38-6.61 43.59-6.42L43.59-6.42Q42.18-6.12 40.77-5.89Q39.37-5.66 39.06-5.66L39.06-5.66Q39.03-5.47 39.03-4.29L39.03-4.29Q39.03-2.81 39.08-1.08Q39.14 0.65 39.22 1.33L39.22 1.33Q39.10 1.33 39.01 1.08Q38.91 0.84 38.76 0.84L38.76 0.84Q38.53 0.84 38.49 0.87L38.49 0.87Q38.19 0.95 37.94 1.10Q37.70 1.25 37.66 1.33L37.66 1.33L37.20 1.41L37.01 1.33Q36.90 1.25 36.71 1.06Q36.52 0.87 36.37 0.84L36.37 0.84Q36.18 0.84 35.93 1.01Q35.68 1.18 35.45 1.41L35.45 1.41L34.69 1.56Q34.62-0.57 34.62-1.63L34.62-1.63Q34.62-3.88 34.73-4.29L34.73-4.29L34.73-12.12L34.88-14.06Q34.88-14.25 34.81-15.39L34.81-15.39L34.81-17.94Q35.19-18.16 35.53-18.16L35.53-18.16L35.91-18.13Q36.14-18.09 36.48-18.01Q36.82-17.94 37.09-17.94L37.09-17.94Q37.62-17.94 37.89-18.32L37.89-18.32Q37.77-18.35 37.66-18.47L37.66-18.47Q37.47-18.47 37.09-18.49Q36.71-18.51 36.71-18.58L36.71-18.58Q36.71-18.58 37.01-18.77L37.01-18.77Q37.20-18.85 37.66-18.91Q38.11-18.96 38.46-19.04L38.46-19.04Q38.80-19.11 39.18-19.19Q39.56-19.27 39.90-19.34L39.90-19.34Q40.32-19.49 40.60-19.72Q40.89-19.95 41.04-20.03L41.04-20.03Q40.24-19.99 39.52-19.82Q38.80-19.65 38.65-19.61L38.65-19.61Q38.38-19.57 37.92-19.46Q37.47-19.34 37.16-19.34L37.16-19.34Q36.86-19.34 36.52-19.46L36.52-19.46Q38-19.91 39.37-20.06L39.37-20.06Q40.39-20.37 41.72-20.37L41.72-20.37Q42.48-20.37 43.21-20.25L43.21-20.25Q43.36-20.25 44.23-20.14Q45.11-20.03 45.87-19.65L45.87-19.65Q46.51-19.49 47.23-19.04L47.23-19.04Q47.99-18.62 48.56-18.16L48.56-18.16Q49.55-17.40 50.08-16.11Q50.62-14.82 50.62-13.57L50.62-13.57Q50.62-11.93 50.05-10.45Q49.48-8.97 48.22-8.09L48.22-8.09ZM45.90-14.82Q45.49-15.09 44.88-15.31L44.88-15.31Q44.38-15.43 43.40-15.50L43.40-15.50Q42.94-15.58 42.64-15.58L42.64-15.58Q42.33-15.58 41.65-15.50L41.65-15.50Q40.89-15.35 40.47-15.24L40.47-15.24L39.29-14.97Q39.33-14.86 39.33-14.29L39.33-14.29Q39.37-13.53 39.37-12.65L39.37-12.65Q39.37-12.05 39.33-11.74L39.33-11.74L39.33-10.15Q43.62-10.68 45.14-11.48L45.14-11.48Q45.64-11.74 45.98-12.27Q46.32-12.81 46.36-13.45L46.36-13.45Q46.36-14.21 45.90-14.82L45.90-14.82ZM70.95-16.68Q71.10-16.68 71.10-15.47L71.10-15.47L71.06-14.55Q70.83-12.20 70.53-9.65L70.53-9.65Q70.45-8.74 70.05-5.05Q69.65-1.37 69.65-0.34L69.65-0.34L69.65 1.56Q69.58 1.48 69.46 1.23Q69.35 0.99 69.16 0.99L69.16 0.99L68.89 1.03Q68.67 1.10 68.40 1.25Q68.13 1.41 68.02 1.44L68.02 1.44L67.60 1.52L67.37 1.44Q67.22 1.37 67.07 1.14Q66.92 0.91 66.84 0.87L66.84 0.87L66.73 0.84Q66.46 0.84 66.16 1.10Q65.85 1.37 65.74 1.44L65.74 1.44Q65.70 1.48 65.63 1.48L65.63 1.48L65.28 1.44Q65.09 1.44 65.02 1.52L65.02 1.52Q65.02 0 65.17-2.58L65.17-2.58Q65.21-2.89 65.25-3.38Q65.28-3.88 65.32-4.64L65.32-4.64L65.78-9.27L58.75-2.17L58.79 0.08Q58.67 0.08 58.58-0.15Q58.48-0.38 58.33-0.38L58.33-0.38Q57.99-0.38 57.61-0.19Q57.23 0 57.15 0.04L57.15 0.04Q56.85 0.11 56.73 0.11L56.73 0.11Q56.70 0.11 56.47 0.04L56.47 0.04Q56.35-0.04 56.20-0.23Q56.05-0.42 55.86-0.49L55.86-0.49Q55.52-0.49 54.87 0.08L54.87 0.08Q54.83 0.11 54.72 0.11L54.72 0.11L54.38 0.08L54.15 0.15Q54.11-0.57 54.11-3.99L54.11-3.99Q54.11-14.25 54.30-18.54L54.30-18.54Q54.61-18.66 54.87-18.66L54.87-18.66L57.04-18.32Q57.23-18.32 57.42-18.51L57.42-18.51Q57.49-18.62 57.57-18.85Q57.65-19.08 57.72-19.08L57.72-19.08Q57.80-19.08 57.84-18.81L57.84-18.81L57.87-18.62L57.84-18.35L57.84-16.99Q57.91-16.64 58.10-16.47Q58.29-16.30 58.37-16.23L58.37-16.23L58.44-17.25Q58.44-18.62 58.75-19L58.75-19L58.75-16.30Q58.75-15.66 58.71-15.31L58.71-15.31Q58.67-14.36 58.67-12.69L58.67-12.69L58.71-8.59Q64.07-14.02 66.46-16.53L66.46-16.53L66.61-17.90Q66.92-18.01 67.18-18.01L67.18-18.01Q67.49-18.01 68.10-17.86L68.10-17.86Q68.25-17.82 68.44-17.78Q68.63-17.75 68.86-17.75L68.86-17.75L69.35-17.67Q69.58-17.67 69.73-17.90L69.73-17.90Q69.84-18.05 69.92-18.26Q70.00-18.47 70.07-18.47L70.07-18.47Q70.11-18.47 70.22-18.20L70.22-18.20L70.22-16.23Q70.30-15.92 70.47-15.79Q70.64-15.66 70.72-15.50L70.72-15.50Q70.76-16.68 70.95-16.68L70.95-16.68ZM89.79-17.10Q89.79-16.64 89.30-16.30L89.30-16.30Q89.19-16.23 88.88-15.96Q88.58-15.69 88.46-15.47L88.46-15.47L88.12-15.16Q88.08-15.12 88.08-14.93L88.08-14.93Q88.08-14.67 88.24-14.52L88.24-14.52L88.84-13.95Q88.88-13.91 88.88-13.79L88.88-13.79Q88.81-13.79 88.50-13.91L88.50-13.91Q88.16-13.98 87.70-14.25Q87.25-14.52 87.10-14.59L87.10-14.59Q86.34-15.05 85.69-15.24L85.69-15.24Q85.35-15.35 85.12-15.35L85.12-15.35Q85.04-15.35 85.01-15.33Q84.97-15.31 84.93-15.31L84.93-15.31Q84.78-15.28 84.64-15.24Q84.51-15.20 84.44-15.16L84.44-15.16Q84.66-15.09 85.04-14.86Q85.42-14.63 85.61-14.63L85.61-14.63L86.68-14.17Q86.79-14.06 87.44-13.76L87.44-13.76Q87.93-13.53 88.18-13.34Q88.43-13.15 88.31-12.96L88.31-12.96Q86.98-13.79 85.69-14.29L85.69-14.29Q85.39-14.40 85.06-14.52Q84.74-14.63 84.36-14.78L84.36-14.78Q83.83-14.97 83.33-14.97Q82.84-14.97 82.73-14.97L82.73-14.97Q82.31-14.97 82.19-14.93L82.19-14.93Q81.85-14.90 81.55-14.71L81.55-14.71Q81.21-14.55 80.98-14.33L80.98-14.33Q80.64-14.06 80.48-13.79L80.48-13.79Q80.22-13.53 79.99-13.07L79.99-13.07Q79.61-12.31 79.40-11.15Q79.19-9.99 79.19-8.78L79.19-8.78Q79.19-7.30 79.53-6.27L79.53-6.27Q79.84-5.32 80.48-4.86Q81.13-4.41 82.42-4.22L82.42-4.22Q82.95-4.14 83.22-4.14L83.22-4.14Q85.27-4.14 88.46-6.19L88.46-6.19Q88.43-5.93 88.24-5.74Q88.05-5.55 88.05-5.47L88.05-5.47Q88.05-5.43 88.05-5.34Q88.05-5.24 88.20-5.13L88.20-5.13Q88.35-5.02 88.81-4.90L88.81-4.90Q88.92-4.86 89.13-4.79Q89.34-4.71 89.41-4.62Q89.49-4.52 89.49-4.37L89.49-4.37Q89.41-4.26 89.34-4.12Q89.26-3.99 89.15-3.84L89.15-3.84Q88.96-3.53 88.96-3.42L88.96-3.42Q89.03-3.19 89.49-3.08L89.49-3.08Q89.76-3.04 90.33-3.04L90.33-3.04Q90.48-3.00 90.53-2.91Q90.59-2.81 90.63-2.74L90.63-2.74Q90.67-2.70 90.74-2.60Q90.82-2.51 90.93-2.47L90.93-2.47Q89.57-1.48 88.01-0.78Q86.45-0.08 85.16 0.19L85.16 0.19Q84.36 0.34 83.11 0.34L83.11 0.34Q81.85 0.34 80.86 0.15L80.86 0.15Q79.50-0.23 78.70-0.72L78.70-0.72Q78.20-0.99 76.99-1.94L76.99-1.94Q75.89-3.15 75.20-5.15Q74.52-7.14 74.52-9.42L74.52-9.42Q74.52-10.34 74.75-11.86Q74.97-13.38 75.20-14.06L75.20-14.06Q75.73-15.31 76.72-16.72L76.72-16.72Q77.29-17.37 77.94-17.82L77.94-17.82Q78.85-18.43 79.46-18.73L79.46-18.73Q79.84-18.96 80.35-19.06Q80.86-19.15 81.02-19.19L81.02-19.19Q81.74-19.38 82.69-19.38L82.69-19.38Q84.13-19.38 85.18-19.21Q86.22-19.04 87.40-18.58L87.40-18.58Q88.92-17.86 89.68-17.40L89.68-17.40L89.79-17.10ZM102.37-14.25Q102.33-13.83 102.33-13.00L102.33-13.00L102.33-10.03L102.33-9.73Q102.33-9.42 102.26-9.23L102.26-9.23L102.26-5.51Q102.26-4.14 102.41-2.96L102.41-2.96L102.41-2.77Q102.52-1.63 102.60 0.49L102.60 0.49Q102.41 0.46 102.20 0.25Q101.99 0.04 101.84 0.04L101.84 0.04Q101.54 0.04 101.31 0.25Q101.08 0.46 101.00 0.49L101.00 0.49Q100.70 0.57 100.55 0.57L100.55 0.57Q100.32 0.57 100.28 0.53L100.28 0.53Q100.21 0.49 100.03 0.30Q99.86 0.11 99.64 0.08L99.64 0.08Q99.37 0.08 99.09 0.28Q98.80 0.49 98.69 0.57L98.69 0.57Q98.53 0.65 98.38 0.65L98.38 0.65L98.15 0.65Q97.93 0.65 97.89 0.68L97.89 0.68Q97.74-2.47 97.66-14.33L97.66-14.33L96.25-14.33Q97.05-14.33 92.91-14.63L92.91-14.63L92.57-14.67L92.49-14.97L92.57-15.43L92.61-15.62L92.61-15.77Q92.83-16.64 92.87-16.91L92.87-16.91L92.95-17.44Q92.95-17.67 92.83-17.82L92.83-17.82Q92.76-17.86 92.61-17.95Q92.45-18.05 92.45-18.13L92.45-18.13Q92.45-18.20 92.64-18.28L92.64-18.28L92.95-18.32L93.29-18.28Q93.37-18.24 93.67-18.24L93.67-18.24Q93.90-18.24 93.97-18.28L93.97-18.28Q94.20-18.35 94.34-18.54Q94.47-18.73 94.54-18.81L94.54-18.81Q94.24-18.85 93.67-18.92Q93.10-19 92.68-19.11L92.68-19.11L92.57-19.15Q92.80-19.23 92.87-19.23L92.87-19.23Q93.06-19.23 93.23-19.17Q93.40-19.11 93.59-19.11L93.59-19.11L96.63-19.19Q99.52-19.19 101.08-19.23L101.08-19.23Q102.14-19.34 105.41-19.34L105.41-19.34Q106.06-19.38 106.97-19.38L106.97-19.38Q106.93-19.27 106.74-19.19Q106.55-19.11 106.55-18.96L106.55-18.96Q106.55-18.77 106.63-18.62L106.63-18.62Q106.74-18.24 106.84-18.01Q106.93-17.78 106.93-17.75L106.93-17.75Q106.97-17.67 106.97-17.37L106.97-17.37Q106.97-17.10 106.93-17.06L106.93-17.06Q106.93-16.99 106.74-16.82Q106.55-16.64 106.55-16.53L106.55-16.53L106.55-16.34Q106.55-16.15 106.72-15.88Q106.89-15.62 106.97-15.43L106.97-15.43Q107.01-15.39 107.01-15.20L107.01-15.20L107.01-14.93Q107.01-14.82 106.23-14.69Q105.45-14.55 102.37-14.25L102.37-14.25ZM136.76-17.59Q136.91-17.48 136.91-17.40L136.91-17.40Q136.91-17.33 136.74-17.27Q136.57-17.21 136.50-17.18L136.50-17.18Q136.38-17.06 136.31-16.83L136.31-16.83L136.31-16.26L136.31-15.92Q136.31-15.43 136.34-15.12L136.34-15.12L136.34-14.29Q136.34-14.29 136.19-14.06L136.19-14.06L136.19-13.83Q136.04-11.63 135.85-8.32Q135.66-5.02 135.66-3.69L135.66-3.69L135.66 0.38Q135.58 0.30 135.47 0.06Q135.36-0.19 135.17-0.19L135.17-0.19L134.90-0.15Q134.67-0.08 134.41 0.08Q134.14 0.23 134.03 0.27L134.03 0.27L133.61 0.34L133.38 0.27Q133.23 0.19 133.08-0.04Q132.92-0.27 132.85-0.30L132.85-0.30L132.73-0.34Q132.47-0.34 132.16-0.08Q131.86 0.19 131.75 0.27L131.75 0.27Q131.71 0.30 131.63 0.30L131.63 0.30L131.29 0.27Q131.10 0.27 131.02 0.34L131.02 0.34Q131.02-3.42 131.33-7.60L131.33-7.60L131.59-14.10L128.40-14.25Q127.26-14.33 124.60-14.40L124.60-14.40L124.56-6.69Q124.56-4.79 124.60-3.84L124.60-3.84L124.79 0.11Q124.68 0.11 124.58-0.11Q124.49-0.34 124.34-0.34L124.34-0.34Q123.99-0.34 123.61-0.15Q123.23 0.04 123.16 0.08L123.16 0.08Q122.85 0.15 122.74 0.15L122.74 0.15Q122.70 0.15 122.47 0.08L122.47 0.08Q122.36 0 122.21-0.19Q122.06-0.38 121.87-0.46L121.87-0.46Q121.52-0.46 120.88 0.11L120.88 0.11Q120.84 0.15 120.73 0.15L120.73 0.15L120.38 0.11L120.16 0.19Q120.04-2.66 120.04-5.55L120.04-5.55Q120.00-6.19 120.00-7.45L120.00-7.45L120.00-9.04Q120.00-12.50 120.04-14.48L120.04-14.48L120.04-14.67L119.97-15.81L119.97-16.00Q119.97-16.11 119.78-16.28Q119.59-16.45 119.59-16.53L119.59-16.53Q119.55-16.57 119.55-16.83L119.55-16.83Q119.55-17.14 119.59-17.21L119.59-17.21Q119.59-17.25 119.68-17.48Q119.78-17.71 119.89-18.09L119.89-18.09Q119.97-18.24 119.97-18.43L119.97-18.43Q119.97-18.54 119.81-18.60Q119.66-18.66 119.55-18.85L119.55-18.85Q120.76-18.85 121.79-18.81L121.79-18.81Q126.81-18.81 127.76-18.70L127.76-18.70Q127.79-18.66 130.68-18.66L130.68-18.66Q133.04-18.58 135.58-18.58L135.58-18.58L135.96-18.58Q136.12-18.58 136.38-18.56Q136.65-18.54 136.99-18.58L136.99-18.58L136.88-18.43Q136.00-18.24 135.89-18.24L135.89-18.24Q136.23-17.82 136.46-17.67L136.46-17.67Q136.53-17.67 136.61-17.63Q136.69-17.59 136.76-17.59L136.76-17.59ZM159.03-8.25Q158.73-6.31 157.81-4.48L157.81-4.48Q157.43-3.72 156.75-2.89L156.75-2.89Q156.22-2.09 155.31-1.39Q154.39-0.68 153.48-0.34L153.48-0.34Q152.65 0.11 151.24 0.34L151.24 0.34Q150.40 0.42 150.06 0.42L150.06 0.42Q149.76 0.42 149.00 0.34L149.00 0.34L148.24 0.27Q147.10 0.23 146.03-0.11L146.03-0.11Q144.59-0.65 143.98-1.18L143.98-1.18Q143.34-1.56 142.42-2.55L142.42-2.55Q141.70-3.53 141.40-4.22L141.40-4.22Q140.94-5.05 140.75-5.97L140.75-5.97Q140.41-7.45 140.41-9.08L140.41-9.08L140.45-9.84L140.45-9.88Q140.79-12.69 142.73-15.12L142.73-15.12Q143.98-16.61 145.35-17.48L145.35-17.48L145.58-17.56Q146.00-17.52 146.15-17.25L146.15-17.25Q146.22-17.21 146.30-16.91L146.30-16.91L146.30-16.61L146.41-15.96Q146.41-15.62 146.60-15.39L146.60-15.39L146.72-14.93Q146.91-14.74 147.06-14.74L147.06-14.74Q147.10-14.74 147.17-14.76Q147.25-14.78 147.36-14.74L147.36-14.74Q147.40-14.74 147.74-14.90Q148.09-15.05 148.31-15.01L148.31-15.01Q148.43-15.01 148.43-14.97L148.43-14.97Q148.39-14.82 148.09-14.67L148.09-14.67Q147.82-14.33 147.48-14.21L147.48-14.21Q147.36-14.14 147.16-13.95Q146.95-13.76 146.76-13.68L146.76-13.68Q146.00-13.15 145.58-12.43L145.58-12.43Q145.35-12.12 145.31-11.74L145.31-11.74L145.27-11.59Q145.27-11.25 145.31-11.06L145.31-11.06Q145.54-11.44 146.15-12.12L146.15-12.12Q146.60-12.54 146.95-12.92L146.95-12.92Q147.63-13.49 148.11-13.79Q148.58-14.10 148.85-13.98L148.85-13.98Q147.86-13.64 146.57-12.20L146.57-12.20Q146.07-11.51 145.73-10.77Q145.39-10.03 145.39-8.85L145.39-8.85Q145.39-7.49 146.05-6.37Q146.72-5.24 148.20-5.02L148.20-5.02L149.23-4.90Q149.38-4.90 149.76-4.88Q150.14-4.86 150.29-4.90L150.29-4.90Q151.89-5.02 152.91-6.08Q153.94-7.14 154.17-8.89L154.17-8.89Q154.17-9.01 154.22-9.71Q154.28-10.41 154.24-10.72L154.24-10.72Q154.13-11.21 153.88-11.70Q153.63-12.20 153.37-12.65L153.37-12.65L152.91-13.19Q152.80-13.41 152.65-13.45L152.65-13.45L152.46-13.68L152-13.95L151.62-14.02L151.09-13.98Q150.59-13.98 150.21-13.95L150.21-13.95L149.30-13.76Q149.00-13.76 148.96-13.79Q148.92-13.83 149.00-13.91Q149.07-13.98 149.11-14.02L149.11-14.02Q149.15-14.06 149.15-14.29L149.15-14.29Q149.15-14.33 149.04-14.55L149.04-14.55Q148.96-14.74 148.79-14.90Q148.62-15.05 148.54-15.12L148.54-15.12Q148.12-15.28 148.12-15.47L148.12-15.47Q148.05-15.69 147.97-15.77L147.97-15.77L148.01-15.92Q148.01-16.11 148.09-16.19L148.09-16.19Q148.20-16.26 148.35-16.34Q148.50-16.42 148.69-16.53L148.69-16.53Q149.11-16.68 149.11-16.80L149.11-16.80L149.15-17.06Q149.15-17.21 148.81-17.40L148.81-17.40L148.05-17.86Q147.93-17.97 147.97-18.16L147.97-18.16L147.97-18.54Q147.97-18.66 147.86-18.70L147.86-18.70Q148.20-18.73 148.64-18.79Q149.07-18.85 149.64-18.92L149.64-18.92L150.94-19.11L152.53-18.96Q153.06-18.92 153.90-18.62L153.90-18.62Q154.47-18.47 155.27-17.82L155.27-17.82L155.84-17.44L156.33-16.91Q157.02-16.30 157.28-15.96L157.28-15.96Q158.12-14.74 158.50-13.64L158.50-13.64Q158.57-13.38 158.82-12.71Q159.07-12.05 159.14-11.55L159.14-11.55Q159.22-11.10 159.22-10.72L159.22-10.72Q159.22-10.11 159.14-9.31Q159.07-8.51 159.03-8.25L159.03-8.25ZM186.50-4.29Q187.42-3.08 188.21-2.28L188.21-2.28Q188.10-2.39 187.99-2.39L187.99-2.39Q187.87-2.39 187.83-2.36L187.83-2.36Q187.57-2.09 187.57-2.09L187.57-2.09Q187.34-1.79 187.34-1.63L187.34-1.63Q187.23-1.52 187.23-1.37L187.23-1.37Q187.19-1.33 187.07-1.16Q186.96-0.99 186.73-0.99L186.73-0.99L186.39-1.03Q186.28-1.03 186.24-0.99L186.24-0.99Q186.05-0.80 186.05-0.61L186.05-0.61L185.97-0.08Q185.93 0.08 185.71 0.23L185.71 0.23Q185.67 0.34 185.50 0.70Q185.33 1.06 185.33 1.14L185.33 1.14Q184.41 0.53 183.94-0.08Q183.46-0.68 183.14-1.25Q182.82-1.82 182.67-2.09L182.67-2.09Q182.48-2.36 181.87-3.15L181.87-3.15L181.53-3.12Q181.15-3.08 180.46-3.08L180.46-3.08Q178.79-3.00 178.14-2.89L178.14-2.89Q177.46-2.89 177.12-2.85L177.12-2.85L175.94-2.70L175.71-1.10L175.60 0.42Q175.52 1.48 175.45 2.01L175.45 2.01Q175.45 1.60 175.10 1.60L175.10 1.60L174.88 1.63Q174.65 1.71 174.46 1.80Q174.27 1.90 174.15 1.94L174.15 1.94L173.85 1.94Q173.66 1.94 173.58 1.90L173.58 1.90Q173.51 1.79 173.39 1.63Q173.28 1.48 173.20 1.44L173.20 1.44L173.05 1.41Q172.86 1.41 172.63 1.56Q172.41 1.71 172.29 1.79L172.29 1.79L172.14 1.86L171.80 1.79Q171.72 1.79 171.65 1.86L171.65 1.86Q171 0.91 171-0.23L171-0.23Q171-0.84 171.11-1.44L171.11-1.44Q171.30-2.55 171.61-4.67L171.61-4.67L172.18-7.33Q172.52-8.93 172.71-9.99L172.71-9.99Q172.75-10.11 172.75-10.37L172.75-10.37Q173.32-13.26 173.47-14.21L173.47-14.21Q173.77-16.00 173.85-18.39L173.85-18.39Q173.96-18.43 174.44-18.47Q174.91-18.51 175.14-18.51L175.14-18.51Q175.22-18.51 175.60-18.43L175.60-18.43Q175.79-18.39 176.05-18.34Q176.32-18.28 176.47-18.28L176.47-18.28L177.23-18.32Q177.42-18.32 177.57-18.47L177.57-18.47Q177.65-18.54 177.73-18.73Q177.80-18.92 177.84-18.96L177.84-18.96Q177.95-18.96 177.95-18.77L177.95-18.77Q177.99-18.51 177.99-18.01L177.99-18.01L179.02-18.05Q179.13-18.09 179.38-18.13Q179.63-18.16 179.70-18.39L179.70-18.39Q179.74-18.43 179.76-18.64Q179.78-18.85 179.85-18.85L179.85-18.85Q179.93-18.85 180.01-18.66L180.01-18.66L180.58-17.33Q180.69-17.10 180.96-17.10Q181.22-17.10 181.30-17.06L181.30-17.06Q181.07-18.20 181.07-18.47L181.07-18.47Q181.07-18.73 181.18-18.96L181.18-18.96Q181.26-18.54 181.60-17.48L181.60-17.48L181.94-16.26L182.21-15.01Q182.59-13.26 183.05-12.12L183.05-12.12L183.92-9.99Q184.11-9.46 184.22-9.06Q184.34-8.66 184.45-8.36L184.45-8.36L184.91-7.30L185.90-7.22L185.93-7.07Q185.97-6.92 185.97-6.61L185.97-6.61Q185.97-6.31 185.93-6.12L185.93-6.12Q185.82-5.55 185.82-5.28L185.82-5.28Q186.12-4.71 186.50-4.29L186.50-4.29ZM177.76-6.84Q179.51-7.07 180.16-7.11L180.16-7.11L179.78-8.17Q178.90-10.49 178.60-11.40Q178.30-12.31 177.84-14.10L177.84-14.10Q177.31-10.79 177.31-10.72L177.31-10.72Q176.97-8.55 176.81-8.02L176.81-8.02L176.59-6.69L177.76-6.84ZM207.78-3.57Q207.90-2.43 207.97-0.30L207.97-0.30Q207.78-0.34 207.58-0.55Q207.37-0.76 207.21-0.76L207.21-0.76Q206.91-0.76 206.68-0.55Q206.45-0.34 206.38-0.30L206.38-0.30Q206.07-0.23 205.92-0.23L205.92-0.23Q205.69-0.23 205.66-0.27L205.66-0.27Q205.58-0.30 205.41-0.49Q205.24-0.68 205.01-0.72L205.01-0.72Q204.74-0.72 204.46-0.51Q204.17-0.30 204.06-0.23L204.06-0.23Q203.91-0.15 203.76-0.15L203.76-0.15L203.53-0.15Q203.30-0.15 203.26-0.11L203.26-0.11Q203.11-3.46 203.03-6.80L203.03-6.80Q202.96-9.99 202.96-12.69L202.96-12.69L202.96-14.02L201.55-14.02Q200.18-14.02 199.50-14.06L199.50-14.06Q199.35-12.81 199.06-10.83Q198.78-8.85 198.55-7.49L198.55-7.49Q198.28-5.78 197.49-4.22L197.49-4.22Q196.92-3.12 196.50-2.55L196.50-2.55Q195.70-1.37 194.39-0.68Q193.08 0 191.67 0L191.67 0L189.77 0Q189.77-0.30 190.17-0.40Q190.57-0.49 190.53-0.65L190.53-0.65Q190.49-0.72 190.32-0.87Q190.15-1.03 190.04-1.14L190.04-1.14Q189.70-1.33 189.70-1.41L189.70-1.41Q189.54-1.60 189.54-1.75L189.54-1.75Q189.54-1.90 189.66-2.01L189.66-2.01L190.19-2.24Q190.30-2.24 190.49-2.39L190.49-2.39L190.68-2.55Q190.68-2.70 190.30-2.93L190.30-2.93Q190.15-3.00 189.92-3.12Q189.70-3.23 189.58-3.34L189.58-3.34Q189.47-3.46 189.47-3.72L189.47-3.72L189.51-3.84Q189.51-3.95 189.35-4.07L189.35-4.07L191.03-4.07Q192.01-4.14 192.74-5.19Q193.46-6.23 193.88-7.94L193.88-7.94L194.56-11.29Q194.90-13.45 194.98-14.44L194.98-14.44L194.90-14.67L194.98-15.12L195.02-15.31L195.02-15.47Q195.24-16.34 195.28-16.61L195.28-16.61L195.36-17.14Q195.36-17.37 195.24-17.52L195.24-17.52Q195.17-17.56 195.02-17.65Q194.86-17.75 194.86-17.82L194.86-17.82Q194.86-17.90 195.05-17.97L195.05-17.97L195.36-18.01Q195.74-18.01 195.74-18.62L195.74-18.62L195.09-18.81L194.98-18.85Q195.21-18.92 195.28-18.92L195.28-18.92Q195.47-18.92 195.64-18.87Q195.81-18.81 196.00-18.81L196.00-18.81L197.18-18.81Q199.58-18.81 201.93-18.89L201.93-18.89L206.19-18.89L207.86-18.89Q207.75-18.70 207.59-18.64Q207.44-18.58 207.44-18.47L207.44-18.47Q207.44-18.28 207.52-18.13L207.52-18.13Q207.63-17.75 207.73-17.52Q207.82-17.29 207.82-17.25L207.82-17.25Q207.86-17.18 207.86-16.87L207.86-16.87Q207.86-16.61 207.82-16.57L207.82-16.57Q207.82-16.49 207.63-16.32Q207.44-16.15 207.44-16.04L207.44-16.04L207.44-15.85Q207.44-15.66 207.61-15.39Q207.78-15.12 207.86-14.93L207.86-14.93Q207.90-14.90 207.90-14.71L207.90-14.71L207.90-14.44L207.67-14.25Q207.63-13.83 207.63-12.69L207.63-12.69L207.63-6.31Q207.63-4.94 207.78-3.76L207.78-3.76L207.78-3.57ZM229.37-16.68Q229.52-16.68 229.52-15.47L229.52-15.47L229.48-14.55Q229.25-12.20 228.95-9.65L228.95-9.65Q228.87-8.74 228.48-5.05Q228.08-1.37 228.08-0.34L228.08-0.34L228.08 1.56Q228.00 1.48 227.89 1.23Q227.77 0.99 227.58 0.99L227.58 0.99L227.32 1.03Q227.09 1.10 226.82 1.25Q226.56 1.41 226.44 1.44L226.44 1.44L226.02 1.52L225.80 1.44Q225.64 1.37 225.49 1.14Q225.34 0.91 225.26 0.87L225.26 0.87L225.15 0.84Q224.88 0.84 224.58 1.10Q224.28 1.37 224.16 1.44L224.16 1.44Q224.12 1.48 224.05 1.48L224.05 1.48L223.71 1.44Q223.52 1.44 223.44 1.52L223.44 1.52Q223.44 0 223.59-2.58L223.59-2.58Q223.63-2.89 223.67-3.38Q223.71-3.88 223.74-4.64L223.74-4.64L224.20-9.27L217.17-2.17L217.21 0.08Q217.09 0.08 217.00-0.15Q216.90-0.38 216.75-0.38L216.75-0.38Q216.41-0.38 216.03-0.19Q215.65 0 215.57 0.04L215.57 0.04Q215.27 0.11 215.16 0.11L215.16 0.11Q215.12 0.11 214.89 0.04L214.89 0.04Q214.78-0.04 214.62-0.23Q214.47-0.42 214.28-0.49L214.28-0.49Q213.94-0.49 213.29 0.08L213.29 0.08Q213.26 0.11 213.14 0.11L213.14 0.11L212.80 0.08L212.57 0.15Q212.53-0.57 212.53-3.99L212.53-3.99Q212.53-14.25 212.72-18.54L212.72-18.54Q213.03-18.66 213.29-18.66L213.29-18.66L215.46-18.32Q215.65-18.32 215.84-18.51L215.84-18.51Q215.92-18.62 215.99-18.85Q216.07-19.08 216.14-19.08L216.14-19.08Q216.22-19.08 216.26-18.81L216.26-18.81L216.30-18.62L216.26-18.35L216.26-16.99Q216.33-16.64 216.52-16.47Q216.71-16.30 216.79-16.23L216.79-16.23L216.87-17.25Q216.87-18.62 217.17-19L217.17-19L217.17-16.30Q217.17-15.66 217.13-15.31L217.13-15.31Q217.09-14.36 217.09-12.69L217.09-12.69L217.13-8.59Q222.49-14.02 224.88-16.53L224.88-16.53L225.04-17.90Q225.34-18.01 225.61-18.01L225.61-18.01Q225.91-18.01 226.52-17.86L226.52-17.86Q226.67-17.82 226.86-17.78Q227.05-17.75 227.28-17.75L227.28-17.75L227.77-17.67Q228.00-17.67 228.15-17.90L228.15-17.90Q228.27-18.05 228.34-18.26Q228.42-18.47 228.49-18.47L228.49-18.47Q228.53-18.47 228.65-18.20L228.65-18.20L228.65-16.23Q228.72-15.92 228.89-15.79Q229.06-15.66 229.14-15.50L229.14-15.50Q229.18-16.68 229.37-16.68L229.37-16.68ZM247.46-18.54L248.22-18.66Q250.19-19 250.57-19L250.57-19Q250.65-19 250.65-18.77L250.65-18.77L250.65-17.18Q250.65-16.30 250.95-16.30L250.95-16.30Q251.07-16.30 251.16-16.42Q251.26-16.53 251.26-16.57L251.26-16.57Q251.45-16.57 251.81-8.02Q252.17 0.53 252.17 2.47L252.17 2.47Q252.09 2.43 252.00 2.19Q251.90 1.94 251.75 1.94L251.75 1.94L251.41 2.01Q251.07 2.09 250.86 2.24Q250.65 2.39 250.57 2.43L250.57 2.43Q250.46 2.51 250.15 2.51L250.15 2.51L249.93 2.43Q249.81 2.36 249.66 2.13Q249.51 1.90 249.36 1.86L249.36 1.86L249.24 1.82Q248.98 1.82 248.69 2.09Q248.41 2.36 248.33 2.43L248.33 2.43L247.57 2.51L247.34-4.79L247.11-10.72L243.09-7.11L239.17-10.60Q239.25-9.65 239.32-7.98L239.32-7.98Q239.40-5.89 239.51-4.71L239.51-4.71L239.86 0.04Q239.70 0.04 239.61-0.19Q239.51-0.42 239.40-0.42L239.40-0.42Q239.17-0.42 239.10-0.38L239.10-0.38Q238.83-0.30 238.58-0.19Q238.34-0.08 238.26 0L238.26 0L237.84 0.08Q237.80 0.08 237.58 0L237.58 0Q237.50-0.04 237.33-0.25Q237.16-0.46 237.04-0.49L237.04-0.49Q237.01-0.53 236.89-0.53L236.89-0.53Q236.66-0.53 236.40-0.30Q236.13-0.08 235.98 0L235.98 0L235.75 0.08L235.45 0.04Q235.30 0.04 235.26 0.08L235.26 0.08Q235.22-0.99 234.95-4.37L234.95-4.37Q234.12-14.86 234.08-19.27L234.08-19.27Q234.31-19.38 234.61-19.38L234.61-19.38L235.18-19.34Q235.87-19.15 236.25-19.15L236.25-19.15L236.70-19.11Q236.93-19.11 237.12-19.34L237.12-19.34Q237.20-19.42 237.27-19.65Q237.35-19.87 237.42-19.87L237.42-19.87Q237.50-19.87 237.54-19.65L237.54-19.65Q237.61-19.42 237.61-18.96L237.61-18.96L237.61-18.47Q237.61-18.24 237.69-17.86L237.69-17.86Q237.77-17.52 237.98-17.38Q238.18-17.25 238.26-17.18L238.26-17.18L238.26-17.86Q238.22-17.90 238.07-18.14Q237.92-18.39 237.92-18.70L237.92-18.70L238.30-18.20L238.26-19.23Q238.26-19.72 238.45-19.87L238.45-19.87Q238.45-19.38 238.51-18.75Q238.56-18.13 238.56-17.82L238.56-17.82L238.98-17.29L240.05-15.96L242.97-12.69L243.12-12.62L243.20-12.73L245.10-14.97Q245.59-15.77 246.01-16.26L246.01-16.26Q246.85-17.44 247.08-17.86L247.08-17.86L247.08-18.47Q247.30-18.54 247.46-18.54L247.46-18.54ZM238.64-16.45Q238.79-16.38 238.96-16.38Q239.13-16.38 239.29-16.38L239.29-16.38Q239.10-16.64 238.94-16.87Q238.79-17.10 238.60-17.33L238.60-17.33Q238.64-16.99 238.64-16.45L238.64-16.45ZM267.03-4.14L268.43-3.80Q269.50-3.53 269.84-3.42L269.84-3.42L269.84-3.27Q269.84-2.74 269.69-2.32L269.69-2.32Q269.61-2.09 269.50-1.82Q269.38-1.56 269.27-1.18L269.27-1.18Q269.23-1.06 269.17-0.87Q269.12-0.68 269.12-0.49L269.12-0.49L269.15-0.30Q269.19-0.23 269.29-0.13Q269.38-0.04 269.38 0.04L269.38 0.04Q269.38 0.11 269.23 0.15L269.23 0.15Q269.19 0.19 269.08 0.19L269.08 0.19Q268.93 0.19 268.68 0.10Q268.43 0 268.32 0L268.32 0Q268.17 0.08 268.03 0.23Q267.90 0.38 267.79 0.46L267.79 0.46Q268.01 0.53 268.38 0.63Q268.74 0.72 268.93 0.82Q269.12 0.91 269.12 1.06L269.12 1.06Q268.85 0.99 268.32 0.91L268.32 0.91Q267.63 0.84 267.29 0.72L267.29 0.72Q262.35-0.15 261.52-0.15L261.52-0.15L261.17-0.15L260.79-0.08L260.49 0Q260.26 0.08 260.01 0.21Q259.77 0.34 259.65 0.34L259.65 0.34Q259.31 0.46 259.27 0.46L259.27 0.46L259.05 0.38L258.40-0.15Q258.13-0.15 257.87 0.10Q257.60 0.34 257.53 0.42L257.53 0.42L257.30 0.49L256.99 0.46Q256.84 0.46 256.80 0.49L256.80 0.49Q256.73-2.24 256.73-3.61L256.73-3.61L257.07-11.40Q257.11-12.20 257.18-12.58L257.18-12.58Q257.18-12.69 257.20-12.94Q257.22-13.19 257.22-13.87L257.22-13.87L257.22-15.96Q257.22-16.87 257.15-18.92L257.15-18.92Q257.41-19.08 257.83-19.08L257.83-19.08L258.17-19.04Q258.36-19 258.59-18.96Q258.82-18.92 259.08-18.92L259.08-18.92L259.24-18.92L259.65-18.89Q259.88-18.89 260.03-19.11L260.03-19.11Q260.11-19.19 260.17-19.44Q260.22-19.68 260.30-19.68L260.30-19.68Q260.41-19.68 260.45-19.46L260.45-19.46Q260.57-19.19 260.57-18.47L260.57-18.47L262.73-18.47Q264.56-18.47 266.42-18.20L266.42-18.20Q268.66-17.82 268.96-17.75L268.96-17.75L268.96-17.56Q268.96-17.10 268.85-16.64L268.85-16.64Q268.77-16.38 268.72-16.11Q268.66-15.85 268.58-15.54L268.58-15.54Q268.51-15.01 268.51-14.90L268.51-14.90Q268.51-14.67 268.55-14.59L268.55-14.59Q268.58-14.52 268.66-14.44Q268.74-14.36 268.74-14.29L268.74-14.29Q268.74-14.25 268.62-14.17L268.62-14.17Q268.58-14.14 268.39-14.14L268.39-14.14L267.82-14.17Q267.63-14.14 267.56-13.95Q267.48-13.76 267.44-13.68L267.44-13.68Q267.67-13.64 267.96-13.60Q268.24-13.57 268.39-13.51Q268.55-13.45 268.58-13.30L268.58-13.30L267.03-13.38Q263.87-13.76 262.58-13.76L262.58-13.76Q261.90-13.83 261.55-13.83L261.55-13.83L261.40-11.55L261.93-11.59L265.35-11.74Q265.89-11.86 266.87-11.93L266.87-11.93Q266.76-11.93 266.76-11.63L266.76-11.63Q266.76-11.32 266.87-10.87Q266.99-10.41 266.99-10.30L266.99-10.30Q267.03-10.15 267.03-9.80L267.03-9.80L267.03-9.61Q266.99-9.46 266.91-9.29Q266.84-9.12 266.84-8.93L266.84-8.93Q266.84-8.66 266.95-8.36Q267.06-8.06 267.10-7.98L267.10-7.98L267.14-7.22L263.04-6.88Q262.43-6.76 261.10-6.69L261.10-6.69L261.06-6.00L261.02-4.79Q262.43-4.79 267.03-4.14L267.03-4.14ZM266.87-11.93L266.87-11.93ZM288.38-15.50Q288.42-16.68 288.61-16.68L288.61-16.68Q288.76-16.68 288.76-15.47L288.76-15.47L288.72-14.55Q288.50-12.20 288.19-9.65L288.19-9.65Q288.12-8.74 287.72-5.05Q287.32-1.37 287.32-0.34L287.32-0.34L287.32 1.56Q287.24 1.48 287.13 1.23Q287.01 0.99 286.82 0.99L286.82 0.99L286.56 1.03Q286.33 1.10 286.06 1.25Q285.80 1.41 285.68 1.44L285.68 1.44L285.27 1.52L285.04 1.44Q284.89 1.37 284.73 1.14Q284.58 0.91 284.51 0.87L284.51 0.87L284.39 0.84Q284.13 0.84 283.82 1.10Q283.52 1.37 283.40 1.44L283.40 1.44Q283.37 1.48 283.29 1.48L283.29 1.48L282.95 1.44Q282.76 1.44 282.68 1.52L282.68 1.52Q282.68 0 282.83-2.58L282.83-2.58Q282.87-2.89 282.91-3.38Q282.95-3.88 282.99-4.64L282.99-4.64L283.14-7.33L277.74-7.33L277.97 0.08Q277.86 0.08 277.76-0.15Q277.67-0.38 277.51-0.38L277.51-0.38Q277.17-0.38 276.79-0.19Q276.41 0 276.34 0.04L276.34 0.04Q276.03 0.11 275.92 0.11L275.92 0.11Q275.88 0.11 275.65 0.04L275.65 0.04Q275.54-0.04 275.39-0.23Q275.23-0.42 275.04-0.49L275.04-0.49Q274.70-0.49 274.06 0.08L274.06 0.08Q274.02 0.11 273.90 0.11L273.90 0.11L273.56 0.08L273.33 0.15Q273.30-0.57 273.30-3.99L273.30-3.99Q273.30-14.25 273.49-18.54L273.49-18.54Q273.79-18.66 274.06-18.66L274.06-18.66L276.22-18.32Q276.41-18.32 276.60-18.51L276.60-18.51Q276.68-18.62 276.75-18.85Q276.83-19.08 276.91-19.08L276.91-19.08Q276.98-19.08 277.02-18.81L277.02-18.81L277.06-18.62L277.02-18.35L277.02-16.99Q277.10-16.64 277.29-16.47Q277.48-16.30 277.55-16.23L277.55-16.23L277.63-17.25Q277.63-18.62 277.93-19L277.93-19L277.93-16.30Q277.93-15.66 277.89-15.31L277.89-15.31Q277.86-14.36 277.86-12.69L277.86-12.69L277.86-11.29L279.64-11.25L283.59-11.21Q283.75-12.81 283.94-13.98L283.94-13.98Q284.20-15.88 284.28-17.90L284.28-17.90Q284.58-18.01 284.85-18.01L284.85-18.01Q285.15-18.01 285.76-17.86L285.76-17.86Q285.91-17.82 286.10-17.78Q286.29-17.75 286.52-17.75L286.52-17.75L287.01-17.67Q287.24-17.67 287.39-17.90L287.39-17.90Q287.51-18.05 287.58-18.26Q287.66-18.47 287.74-18.47L287.74-18.47Q287.77-18.47 287.89-18.20L287.89-18.20L287.89-16.23Q287.96-15.92 288.13-15.79Q288.31-15.66 288.38-15.50L288.38-15.50ZM301.72-14.25Q301.68-13.83 301.68-13.00L301.68-13.00L301.68-10.03L301.68-9.73Q301.68-9.42 301.61-9.23L301.61-9.23L301.61-5.51Q301.61-4.14 301.76-2.96L301.76-2.96L301.76-2.77Q301.87-1.63 301.95 0.49L301.95 0.49Q301.76 0.46 301.55 0.25Q301.34 0.04 301.19 0.04L301.19 0.04Q300.88 0.04 300.66 0.25Q300.43 0.46 300.35 0.49L300.35 0.49Q300.05 0.57 299.90 0.57L299.90 0.57Q299.67 0.57 299.63 0.53L299.63 0.53Q299.55 0.49 299.38 0.30Q299.21 0.11 298.98 0.08L298.98 0.08Q298.72 0.08 298.43 0.28Q298.15 0.49 298.03 0.57L298.03 0.57Q297.88 0.65 297.73 0.65L297.73 0.65L297.50 0.65Q297.27 0.65 297.24 0.68L297.24 0.68Q297.08-2.47 297.01-14.33L297.01-14.33L295.60-14.33Q296.40-14.33 292.26-14.63L292.26-14.63L291.92-14.67L291.84-14.97L291.92-15.43L291.95-15.62L291.95-15.77Q292.18-16.64 292.22-16.91L292.22-16.91L292.30-17.44Q292.30-17.67 292.18-17.82L292.18-17.82Q292.11-17.86 291.95-17.95Q291.80-18.05 291.80-18.13L291.80-18.13Q291.80-18.20 291.99-18.28L291.99-18.28L292.30-18.32L292.64-18.28Q292.71-18.24 293.02-18.24L293.02-18.24Q293.25-18.24 293.32-18.28L293.32-18.28Q293.55-18.35 293.68-18.54Q293.82-18.73 293.89-18.81L293.89-18.81Q293.59-18.85 293.02-18.92Q292.45-19 292.03-19.11L292.03-19.11L291.92-19.15Q292.14-19.23 292.22-19.23L292.22-19.23Q292.41-19.23 292.58-19.17Q292.75-19.11 292.94-19.11L292.94-19.11L295.98-19.19Q298.87-19.19 300.43-19.23L300.43-19.23Q301.49-19.34 304.76-19.34L304.76-19.34Q305.41-19.38 306.32-19.38L306.32-19.38Q306.28-19.27 306.09-19.19Q305.90-19.11 305.90-18.96L305.90-18.96Q305.90-18.77 305.98-18.62L305.98-18.62Q306.09-18.24 306.19-18.01Q306.28-17.78 306.28-17.75L306.28-17.75Q306.32-17.67 306.32-17.37L306.32-17.37Q306.32-17.10 306.28-17.06L306.28-17.06Q306.28-16.99 306.09-16.82Q305.90-16.64 305.90-16.53L305.90-16.53L305.90-16.34Q305.90-16.15 306.07-15.88Q306.24-15.62 306.32-15.43L306.32-15.43Q306.36-15.39 306.36-15.20L306.36-15.20L306.36-14.93Q306.36-14.82 305.58-14.69Q304.80-14.55 301.72-14.25L301.72-14.25ZM323.76-4.29Q324.67-3.08 325.47-2.28L325.47-2.28Q325.36-2.39 325.24-2.39L325.24-2.39Q325.13-2.39 325.09-2.36L325.09-2.36Q324.82-2.09 324.82-2.09L324.82-2.09Q324.60-1.79 324.60-1.63L324.60-1.63Q324.48-1.52 324.48-1.37L324.48-1.37Q324.44-1.33 324.33-1.16Q324.22-0.99 323.99-0.99L323.99-0.99L323.65-1.03Q323.53-1.03 323.49-0.99L323.49-0.99Q323.30-0.80 323.30-0.61L323.30-0.61L323.23-0.08Q323.19 0.08 322.96 0.23L322.96 0.23Q322.92 0.34 322.75 0.70Q322.58 1.06 322.58 1.14L322.58 1.14Q321.67 0.53 321.20-0.08Q320.72-0.68 320.40-1.25Q320.07-1.82 319.92-2.09L319.92-2.09Q319.73-2.36 319.12-3.15L319.12-3.15L318.78-3.12Q318.40-3.08 317.72-3.08L317.72-3.08Q316.05-3.00 315.40-2.89L315.40-2.89Q314.72-2.89 314.37-2.85L314.37-2.85L313.20-2.70L312.97-1.10L312.85 0.42Q312.78 1.48 312.70 2.01L312.70 2.01Q312.70 1.60 312.36 1.60L312.36 1.60L312.13 1.63Q311.90 1.71 311.71 1.80Q311.52 1.90 311.41 1.94L311.41 1.94L311.11 1.94Q310.92 1.94 310.84 1.90L310.84 1.90Q310.76 1.79 310.65 1.63Q310.54 1.48 310.46 1.44L310.46 1.44L310.31 1.41Q310.12 1.41 309.89 1.56Q309.66 1.71 309.55 1.79L309.55 1.79L309.40 1.86L309.05 1.79Q308.98 1.79 308.90 1.86L308.90 1.86Q308.26 0.91 308.26-0.23L308.26-0.23Q308.26-0.84 308.37-1.44L308.37-1.44Q308.56-2.55 308.86-4.67L308.86-4.67L309.43-7.33Q309.78-8.93 309.97-9.99L309.97-9.99Q310.00-10.11 310.00-10.37L310.00-10.37Q310.57-13.26 310.73-14.21L310.73-14.21Q311.03-16.00 311.11-18.39L311.11-18.39Q311.22-18.43 311.70-18.47Q312.17-18.51 312.40-18.51L312.40-18.51Q312.47-18.51 312.85-18.43L312.85-18.43Q313.04-18.39 313.31-18.34Q313.58-18.28 313.73-18.28L313.73-18.28L314.49-18.32Q314.68-18.32 314.83-18.47L314.83-18.47Q314.91-18.54 314.98-18.73Q315.06-18.92 315.10-18.96L315.10-18.96Q315.21-18.96 315.21-18.77L315.21-18.77Q315.25-18.51 315.25-18.01L315.25-18.01L316.27-18.05Q316.39-18.09 316.64-18.13Q316.88-18.16 316.96-18.39L316.96-18.39Q317.00-18.43 317.02-18.64Q317.03-18.85 317.11-18.85L317.11-18.85Q317.19-18.85 317.26-18.66L317.26-18.66L317.83-17.33Q317.95-17.10 318.21-17.10Q318.48-17.10 318.55-17.06L318.55-17.06Q318.33-18.20 318.33-18.47L318.33-18.47Q318.33-18.73 318.44-18.96L318.44-18.96Q318.52-18.54 318.86-17.48L318.86-17.48L319.20-16.26L319.47-15.01Q319.85-13.26 320.30-12.12L320.30-12.12L321.18-9.99Q321.37-9.46 321.48-9.06Q321.59-8.66 321.71-8.36L321.71-8.36L322.16-7.30L323.15-7.22L323.19-7.07Q323.23-6.92 323.23-6.61L323.23-6.61Q323.23-6.31 323.19-6.12L323.19-6.12Q323.08-5.55 323.08-5.28L323.08-5.28Q323.38-4.71 323.76-4.29L323.76-4.29ZM315.02-6.84Q316.77-7.07 317.41-7.11L317.41-7.11L317.03-8.17Q316.16-10.49 315.86-11.40Q315.55-12.31 315.10-14.10L315.10-14.10Q314.56-10.79 314.56-10.72L314.56-10.72Q314.22-8.55 314.07-8.02L314.07-8.02L313.84-6.69L315.02-6.84ZM341.51-18.54L342.27-18.66Q344.24-19 344.62-19L344.62-19Q344.70-19 344.70-18.77L344.70-18.77L344.70-17.18Q344.70-16.30 345.00-16.30L345.00-16.30Q345.12-16.30 345.21-16.42Q345.31-16.53 345.31-16.57L345.31-16.57Q345.50-16.57 345.86-8.02Q346.22 0.53 346.22 2.47L346.22 2.47Q346.14 2.43 346.05 2.19Q345.95 1.94 345.80 1.94L345.80 1.94L345.46 2.01Q345.12 2.09 344.91 2.24Q344.70 2.39 3`o    `o                    p*h            @(h    o            o    {      o            90 343.41 1.86L343.41 1.86L343.29 1.82Q343.03 1.82 342.74 2.09Q342.46 2.36 342.38 2.43L342.38 2.43L341.62 2.51L341.39-4.79L341.16-10.72L337.14-7.11L333.22-10.60Q333.30-9.65 333.37-7.98L333.37-7.98Q333.45-5.89 333.56-4.71L333.56-4.71L333.91 0.04Q333.75 0.04 333.66-0.19Q333.56-0.42 333.45-0.42L333.45-0.42Q333.22-0.42 333.15-0.38L333.15-0.38Q332.88-0.30 332.63-0.19Q332.39-0.08 332.31 0L332.31 0L331.89 0.08Q331.85 0.08 331.63 0L331.63 0Q331.55-0.04 331.38-0.25Q331.21-0.46 331.09-0.49L331.09-0.49Q331.06-0.53 330.94-0.53L330.94-0.53Q330.71-0.53 330.45-0.30Q330.18-0.08 330.03 0L330.03 0L329.80 0.08L329.50 0.04Q329.35 0.04 329.31 0.08L329.31 0.08Q329.27-0.99 329.00-4.37L329.00-4.37Q328.17-14.86 328.13-19.27L328.13-19.27Q328.36-19.38 328.66-19.38L328.66-19.38L329.23-19.34Q329.92-19.15 330.30-19.15L330.30-19.15L330.75-19.11Q330.98-19.11 331.17-19.34L331.17-19.34Q331.25-19.42 331.32-19.65Q331.40-19.87 331.47-19.87L331.47-19.87Q331.55-19.87 331.59-19.65L331.59-19.65Q331.66-19.42 331.66-18.96L331.66-18.96L331.66-18.47Q331.66-18.24 331.74-17.86L331.74-17.86Q331.82-17.52 332.03-17.38Q332.23-17.25 332.31-17.18L332.31-17.18L332.31-17.86Q332.27-17.90 332.12-18.14Q331.97-18.39 331.97-18.70L331.97-18.70L332.35-18.20L332.31-19.23Q332.31-19.72 332.50-19.87L332.50-19.87Q332.50-19.38 332.56-18.75Q332.61-18.13 332.61-17.82L332.61-17.82L333.03-17.29L334.10-15.96L337.02-12.69L337.17-12.62L337.25-12.73L339.15-14.97Q339.64-15.77 340.06-16.26L340.06-16.26Q340.90-17.44 341.13-17.86L341.13-17.86L341.13-18.47Q341.35-18.54 341.51-18.54L341.51-18.54ZM332.69-16.45Q332.84-16.38 333.01-16.38Q333.18-16.38 333.34-16.38L333.34-16.38Q333.15-16.64 332.99-16.87Q332.84-17.10 332.65-17.33L332.65-17.33Q332.69-16.99 332.69-16.45L332.69-16.45Z" fill="#ffffff" transform="matrix(1,0,0,1,94.56,322.14)" class="lo-name"></path></svg>